<?xml version="1.0" standalone="no"?>
<!DOCTYPE svg PUBLIC "-//W3C//DTD SVG 1.1//EN"
  "http://www.w3.org/Graphics/SVG/1.1/DTD/svg11.dtd">
<svg width="32mm" height="347mm" viewBox="-418 -164 32 347" xmlns="http://www.w3.org/2000/svg" version="1.1">
	<title>svgOutput</title>
	<desc>made with tinkercad</desc>
<path d="M -387 -5.502999782562256 L -387.40301513671875 -5.502999782562256 L -387.40301513671875 -5.501999855041504 L -387.40301513671875 -0.5989999771118163 L -390.49798583984375 -0.5989999771118163 L -390.49798583984375 -5.501999855041504 L -390.49798583984375 -5.603000164031982 L -394.50299072265625 -5.603000164031982 L -394.50299072265625 -5.502999782562256 L -394.8030090332031 -5.502999782562256 L -394.8030090332031 -5.501999855041504 L -394.8030090332031 24.50200080871582 L -394.50299072265625 24.50200080871582 L -394.50299072265625 24.503000259399414 L -391.90301513671875 24.503000259399414 L -391.0050048828125 24.503000259399414 L -390.49798583984375 24.503000259399414 L -390.49798583984375 19.499000549316406 L -387.40301513671875 19.499000549316406 L -387.40301513671875 24.50200080871582 L -387 24.50200080871582 L -387 24.503000259399414 L -387 179.0970001220703 L -391.90301513671875 179.0970001220703 L -391.90301513671875 182 L -411.99798583984375 182 L -411.99798583984375 179.0970001220703 L -417 179.0970001220703 L -417 24.503000259399414 L -417 24.50200080871582 L -416.5979919433594 24.50200080871582 L -416.5979919433594 19.499000549316406 L -413.50299072265625 19.499000549316406 L -413.50299072265625 24.503000259399414 L -412.9949951171875 24.503000259399414 L -411.99798583984375 24.503000259399414 L -409.49798583984375 24.503000259399414 L -409.49798583984375 24.50200080871582 L -409.0979919433594 24.50200080871582 L -409.0979919433594 -5.501999855041504 L -409.0979919433594 -5.502999782562256 L -409.49798583984375 -5.502999782562256 L -409.49798583984375 -5.603000164031982 L -413.50299072265625 -5.603000164031982 L -413.50299072265625 -5.501999855041504 L -413.50299072265625 -0.5989999771118163 L -416.5979919433594 -0.5989999771118163 L -416.5979919433594 -5.501999855041504 L -416.5979919433594 -5.502999782562256 L -417 -5.502999782562256 L -417 -163 L -416.5979919433594 -163 L -413.50299072265625 -163 L -409.49798583984375 -163 L -409.0979919433594 -163 L -394.8030090332031 -163 L -394.50299072265625 -163 L -390.49798583984375 -163 L -387.40301513671875 -163 L -387 -163 L -387 -5.502999782562256 z" fill="none" stroke="rgb(255,0,0)" stroke-width="0.001mm" />
</svg>