<?xml version="1.0" standalone="no"?>
<!DOCTYPE svg PUBLIC "-//W3C//DTD SVG 1.1//EN"
  "http://www.w3.org/Graphics/SVG/1.1/DTD/svg11.dtd">
<svg width="297mm" height="106.99700927734375mm" viewBox="-175 -425 297 106.99700927734375" xmlns="http://www.w3.org/2000/svg" version="1.1">
	<title>svgOutput</title>
	<desc>made with tinkercad</desc>
<path d="M 121 -421 L 118.00299835205078 -421 L 114.99800109863281 -421 L 114.99800109863281 -418.00201416015625 L 118.00299835205078 -418.00201416015625 L 121 -418.00201416015625 L 121 -415.00201416015625 L 118.00299835205078 -415.00201416015625 L 114.99800109863281 -415.00201416015625 L 114.99800109863281 -412.00201416015625 L 118.00299835205078 -412.00201416015625 L 121 -412.00201416015625 L 121 -409.00201416015625 L 118.00299835205078 -409.00201416015625 L 114.99800109863281 -409.00201416015625 L 114.99800109863281 -406.00201416015625 L 118.00299835205078 -406.00201416015625 L 121 -406.00201416015625 L 121 -403.00201416015625 L 118.00299835205078 -403.00201416015625 L 114.99800109863281 -403.00201416015625 L 114.99800109863281 -400.0010070800781 L 118.00299835205078 -400.0010070800781 L 121 -400.0010070800781 L 121 -397.0010070800781 L 118.00299835205078 -397.0010070800781 L 114.99800109863281 -397.0010070800781 L 114.99800109863281 -394.0010070800781 L 118.00299835205078 -394.0010070800781 L 121 -394.0010070800781 L 121 -391.0010070800781 L 118.00299835205078 -391.0010070800781 L 114.99800109863281 -391.0010070800781 L 114.99800109863281 -388.0010070800781 L 118.00299835205078 -388.0010070800781 L 121 -388.0010070800781 L 121 -385.0010070800781 L 118.00299835205078 -385.0010070800781 L 114.99800109863281 -385.0010070800781 L 114.99800109863281 -382 L 118.00299835205078 -382 L 118.00299835205078 -382.0010070800781 L 121 -382.0010070800781 L 121 -379 L 118.00299835205078 -379 L 114.99800109863281 -379 L 114.99800109863281 -376 L 118.00299835205078 -376 L 121 -376 L 121 -373 L 118.00299835205078 -373 L 114.99800109863281 -373 L 114.99800109863281 -370 L 118.00299835205078 -370 L 121 -370 L 121 -367 L 118.00299835205078 -367 L 114.99800109863281 -367 L 114.99800109863281 -363.9989929199219 L 118.00299835205078 -363.9989929199219 L 118.00299835205078 -364 L 121 -364 L 121 -360.9989929199219 L 118.00299835205078 -360.9989929199219 L 114.99800109863281 -360.9989929199219 L 114.99800109863281 -357.9989929199219 L 118.00299835205078 -357.9989929199219 L 121 -357.9989929199219 L 121 -354.9989929199219 L 118.00299835205078 -354.9989929199219 L 114.99800109863281 -354.9989929199219 L 114.99800109863281 -351.9989929199219 L 118.00299835205078 -351.9989929199219 L 121 -351.9989929199219 L 121 -348.9989929199219 L 118.00299835205078 -348.9989929199219 L 114.99800109863281 -348.9989929199219 L 114.99800109863281 -345.99798583984375 L 117.99800109863281 -345.99798583984375 L 118.00299835205078 -345.99798583984375 L 118.00299835205078 -345.9989929199219 L 121 -345.9989929199219 L 121 -342.9989929199219 L 118.00299835205078 -342.9989929199219 L 117.99800109863281 -342.9989929199219 L 117.99800109863281 -342.99798583984375 L 114.99800109863281 -342.99798583984375 L 114.99800109863281 -339.99798583984375 L 118.00299835205078 -339.99798583984375 L 121 -339.99798583984375 L 121 -336.99798583984375 L 118.00299835205078 -336.99798583984375 L 114.99800109863281 -336.99798583984375 L 114.99800109863281 -333.99798583984375 L 118.00299835205078 -333.99798583984375 L 121 -333.99798583984375 L 121 -332.00299072265625 L 121 -330.99798583984375 L 118.00299835205078 -330.99798583984375 L 114.99800109863281 -330.99798583984375 L 114.99800109863281 -328.99798583984375 L 117.99800109863281 -328.99798583984375 L 117.99800109863281 -327.99798583984375 L 118.00299835205078 -327.99798583984375 L 121 -327.99798583984375 L 121 -324.99798583984375 L 118.00299835205078 -324.99798583984375 L 117.99800109863281 -324.99798583984375 L 117.99800109863281 -321.99798583984375 L 118.00299835205078 -321.99798583984375 L 121 -321.99798583984375 L 121 -319.00299072265625 L 118.00299835205078 -319.00299072265625 L 117.99800109863281 -319.00299072265625 L 114.99800109863281 -319.00299072265625 L 20.606000900268555 -319.00299072265625 L 14.003000259399414 -325.6059875488281 L 14.003000259399414 -332.00299072265625 L -1.0019999742507935 -332.00299072265625 L -1.0019999742507935 -326.14300537109375 L -7.876999855041504 -319.26800537109375 L -7.611999988555908 -319.00299072265625 L -11.498000144958496 -319.00299072265625 L -41.50299835205078 -319.00299072265625 L -167.9969940185547 -319.00299072265625 L -170.9980010986328 -319.00299072265625 L -174 -319.00299072265625 L -174 -321.99798583984375 L -170.9980010986328 -321.99798583984375 L -170.9980010986328 -324.99798583984375 L -174 -324.99798583984375 L -174 -327.99798583984375 L -170.9980010986328 -327.99798583984375 L -170.9980010986328 -328.99798583984375 L -167.9969940185547 -328.99798583984375 L -167.9969940185547 -330.99798583984375 L -170.9980010986328 -330.99798583984375 L -174 -330.99798583984375 L -174 -333.99798583984375 L -170.9980010986328 -333.99798583984375 L -167.9969940185547 -333.99798583984375 L -167.9969940185547 -336.99798583984375 L -170.9980010986328 -336.99798583984375 L -174 -336.99798583984375 L -174 -339.99798583984375 L -170.9980010986328 -339.99798583984375 L -167.9969940185547 -339.99798583984375 L -167.9969940185547 -342.99798583984375 L -170.9980010986328 -342.99798583984375 L -170.9980010986328 -342.9989929199219 L -171.0019989013672 -342.9989929199219 L -174 -342.9989929199219 L -174 -345.9989929199219 L -171.0019989013672 -345.9989929199219 L -171.0019989013672 -345.99798583984375 L -170.9980010986328 -345.99798583984375 L -167.9969940185547 -345.99798583984375 L -167.9969940185547 -348.9989929199219 L -170.9980010986328 -348.9989929199219 L -174 -348.9989929199219 L -174 -351.9989929199219 L -170.9980010986328 -351.9989929199219 L -167.9969940185547 -351.9989929199219 L -167.9969940185547 -354.9989929199219 L -170.9980010986328 -354.9989929199219 L -174 -354.9989929199219 L -174 -357.9989929199219 L -170.9980010986328 -357.9989929199219 L -167.9969940185547 -357.9989929199219 L -167.9969940185547 -360.9989929199219 L -170.9980010986328 -360.9989929199219 L -171.0019989013672 -360.9989929199219 L -174 -360.9989929199219 L -174 -364 L -171.0019989013672 -364 L -171.0019989013672 -363.9989929199219 L -170.9980010986328 -363.9989929199219 L -167.9969940185547 -363.9989929199219 L -167.9969940185547 -367 L -170.9980010986328 -367 L -174 -367 L -174 -370 L -170.9980010986328 -370 L -167.9969940185547 -370 L -167.9969940185547 -373 L -170.9980010986328 -373 L -174 -373 L -174 -376 L -170.9980010986328 -376 L -167.9969940185547 -376 L -167.9969940185547 -379 L -170.9980010986328 -379 L -171.0019989013672 -379 L -174 -379 L -174 -382.0010070800781 L -171.0019989013672 -382.0010070800781 L -171.0019989013672 -382 L -170.9980010986328 -382 L -167.9969940185547 -382 L -167.9969940185547 -385.0010070800781 L -170.9980010986328 -385.0010070800781 L -174 -385.0010070800781 L -174 -388.0010070800781 L -170.9980010986328 -388.0010070800781 L -167.9969940185547 -388.0010070800781 L -167.9969940185547 -391.0010070800781 L -170.9980010986328 -391.0010070800781 L -174 -391.0010070800781 L -174 -394.0010070800781 L -170.9980010986328 -394.0010070800781 L -167.9969940185547 -394.0010070800781 L -167.9969940185547 -397.0010070800781 L -170.9980010986328 -397.0010070800781 L -174 -397.0010070800781 L -174 -400.0010070800781 L -170.9980010986328 -400.0010070800781 L -167.9969940185547 -400.0010070800781 L -167.9969940185547 -403.00201416015625 L -170.9980010986328 -403.00201416015625 L -174 -403.00201416015625 L -174 -406.00201416015625 L -170.9980010986328 -406.00201416015625 L -167.9969940185547 -406.00201416015625 L -167.9969940185547 -409.00201416015625 L -170.9980010986328 -409.00201416015625 L -174 -409.00201416015625 L -174 -412.00201416015625 L -170.9980010986328 -412.00201416015625 L -167.9969940185547 -412.00201416015625 L -167.9969940185547 -415.00201416015625 L -170.9980010986328 -415.00201416015625 L -174 -415.00201416015625 L -174 -418.00201416015625 L -170.9980010986328 -418.00201416015625 L -167.9969940185547 -418.00201416015625 L -167.9969940185547 -421 L -170.9980010986328 -421 L -174 -421 L -174 -424 L 121 -424 L 121 -421 M -41.5 -418.00299072265625 L -41.50299835205078 -418.00299072265625 L -41.50299835205078 -417.99798583984375 L -41.50299835205078 -414.99798583984375 L -37.00199890136719 -414.99798583984375 L -37.00199890136719 -413.99798583984375 L -36.50299835205078 -413.99798583984375 L -16.49799919128418 -413.99798583984375 L -15.996999740600586 -413.99798583984375 L -15.996999740600586 -414.99798583984375 L -11.498000144958496 -414.99798583984375 L -11.498000144958496 -417.99798583984375 L -11.498000144958496 -418.00299072265625 L -11.5 -418.00299072265625 L -11.5 -421 L -15.996999740600586 -421 L -16.49799919128418 -421 L -36.50299835205078 -421 L -37.00199890136719 -421 L -41.5 -421 L -41.5 -418.00299072265625 M -36.50299835205078 -326.0060119628906 L -41.50299835205078 -326.0060119628906 L -41.50299835205078 -323.0010070800781 L -11.498000144958496 -323.0010070800781 L -11.498000144958496 -326.0060119628906 L -36.50299835205078 -326.0060119628906 M 1.0010000467300415 -417.99798583984375 L 16.000999450683594 -417.99798583984375 L 16.000999450683594 -421 L 1.0010000467300415 -421 L 1.0010000467300415 -417.99798583984375 M -62.500999450683594 -417.99798583984375 L -62.500999450683594 -421 L -74.0009994506836 -421 L -74.0009994506836 -417.99798583984375 L -62.500999450683594 -417.99798583984375 M 106.00199890136719 -417.99798583984375 L 106.00199890136719 -421 L 91.00199890136719 -421 L 91.00199890136719 -417.99798583984375 L 106.00199890136719 -417.99798583984375 M -164.0019989013672 -417.99798583984375 L -149.0019989013672 -417.99798583984375 L -149.0019989013672 -421 L -164.0019989013672 -421 L -164.0019989013672 -417.99798583984375 M -119.00199890136719 -417.99798583984375 L -119.00199890136719 -421 L -134.0019989013672 -421 L -134.0019989013672 -417.99798583984375 L -119.00199890136719 -417.99798583984375 M -89.0009994506836 -417.99798583984375 L -89.0009994506836 -421 L -104.0009994506836 -421 L -104.0009994506836 -417.99798583984375 L -89.0009994506836 -417.99798583984375 M 31.000999450683594 -421 L 31.000999450683594 -417.99798583984375 L 46.000999450683594 -417.99798583984375 L 46.000999450683594 -421 L 31.000999450683594 -421 M 76.00199890136719 -417.99798583984375 L 76.00199890136719 -421 L 61.00199890136719 -421 L 61.00199890136719 -417.99798583984375 L 76.00199890136719 -417.99798583984375 z" fill="none" stroke="rgb(255,0,0)" stroke-width="0.001mm" />
</svg>