<?xml version="1.0" standalone="no"?>
<!DOCTYPE svg PUBLIC "-//W3C//DTD SVG 1.1//EN"
  "http://www.w3.org/Graphics/SVG/1.1/DTD/svg11.dtd">
<svg width="114mm" height="353mm" viewBox="-246 -167 114 353" xmlns="http://www.w3.org/2000/svg" version="1.1">
	<title>svgOutput</title>
	<desc>made with tinkercad</desc>
<path d="M -143.0030059814453 -137.0030059814453 L -203.0030059814453 -137.0030059814453 L -203.0030059814453 -133.9980010986328 L -143.0030059814453 -133.9980010986328 L -143.0030059814453 -113.00299835205078 L -203.0030059814453 -113.00299835205078 L -203.0030059814453 -109.99800109863281 L -143.0030059814453 -109.99800109863281 L -143.0030059814453 -89.00299835205078 L -203.0030059814453 -89.00299835205078 L -203.0030059814453 -85.99800109863281 L -143.0030059814453 -85.99800109863281 L -143.0030059814453 -65.00299835205078 L -203.0030059814453 -65.00299835205078 L -203.0030059814453 -61.99800109863281 L -143.0030059814453 -61.99800109863281 L -143.0030059814453 -41.00299835205078 L -203.0030059814453 -41.00299835205078 L -203.0030059814453 -37.99800109863281 L -146.0030059814453 -37.99800109863281 L -143.0030059814453 -37.99800109863281 L -143.0030059814453 -35.00299835205078 L -146.0030059814453 -35.00299835205078 L -146.0030059814453 -19.99799919128418 L -143.0030059814453 -19.99799919128418 L -143.0030059814453 -17.003000259399414 L -146.0030059814453 -17.003000259399414 L -203.0030059814453 -17.003000259399414 L -203.0030059814453 -13.998000144958496 L -143.0030059814453 -13.998000144958496 L -143.0030059814453 6.997000217437744 L -203.0030059814453 6.997000217437744 L -203.0030059814453 10.001999855041504 L -143.0030059814453 10.001999855041504 L -143.0030059814453 30.996999740600586 L -203.0030059814453 30.996999740600586 L -203.0030059814453 34.00199890136719 L -143.0030059814453 34.00199890136719 L -143.0030059814453 54.99700164794922 L -203.0030059814453 54.99700164794922 L -203.0030059814453 58.00199890136719 L -143.0030059814453 58.00199890136719 L -143.0030059814453 78.99700164794922 L -203.0030059814453 78.99700164794922 L -203.0030059814453 82.00199890136719 L -143.0030059814453 82.00199890136719 L -143.0030059814453 102.99700164794922 L -203.0030059814453 102.99700164794922 L -203.0030059814453 106.00199890136719 L -143.0030059814453 106.00199890136719 L -143.0030059814453 126.99800109863281 L -203.0030059814453 126.99800109863281 L -203.0030059814453 130.0030059814453 L -143.0030059814453 130.0030059814453 L -143.0030059814453 150.9980010986328 L -203.0030059814453 150.9980010986328 L -203.0030059814453 154.0030059814453 L -143.0030059814453 154.0030059814453 L -143.0030059814453 159 L -143.0030059814453 160 L -143.0030059814453 175.9969940185547 L -144.9980010986328 175.9969940185547 L -144.9980010986328 176 L -144.9980010986328 182 L -143.0030059814453 182 L -133 182 L -133 185 L -238 185 L -238 182 L -235.00100708007812 182 L -234.9980010986328 182 L -232.0030059814453 182 L -232.0019989013672 182 L -232.0019989013672 180.0030059814453 L -231.9980010986328 180.0030059814453 L -231.9980010986328 176 L -231.9980010986328 175.9969940185547 L -232.0019989013672 175.9969940185547 L -232.0030059814453 175.9969940185547 L -234.9980010986328 175.9969940185547 L -235.00100708007812 175.9969940185547 L -235.0030059814453 175.9969940185547 L -235.0030059814453 175.9980010986328 L -235.10299682617188 175.9980010986328 L -238 175.9980010986328 L -239 175.9980010986328 L -239.00100708007812 175.9980010986328 L -241 175.9980010986328 L -241 176 L -242 176 L -245 176 L -245 159 L -242 159 L -242 -134 L -242 -139 L -245 -139 L -245 -140 L -245 -157 L -242 -157 L -241 -157 L -241 -156.9969940185547 L -239.00100708007812 -156.9969940185547 L -239 -156.9969940185547 L -238 -156.9969940185547 L -235.10299682617188 -156.9969940185547 L -235.0030059814453 -156.9969940185547 L -235.00100708007812 -156.9969940185547 L -234.9980010986328 -156.9969940185547 L -234.9980010986328 -157 L -234.9980010986328 -161.0030059814453 L -235.00100708007812 -161.0030059814453 L -235.00100708007812 -163 L -238 -163 L -238 -166 L -133 -166 L -133 -163 L -143.0030059814453 -163 L -143.0030059814453 -157 L -143.0030059814453 -140 L -143.0030059814453 -137.0030059814453 M -199.00100708007812 178.4980010986328 L -199.00100708007812 182 L -196 182 L -196 178.4980010986328 L -196.00100708007812 178.4980010986328 L -196.00100708007812 176 L -196.00100708007812 175.9969940185547 L -199.00100708007812 175.9969940185547 L -199.00100708007812 176 L -199.00100708007812 178.4980010986328 M -178 178.4980010986328 L -178 176 L -178 175.9969940185547 L -181 175.9969940185547 L -181 176 L -181 178.4980010986328 L -181 182 L -177.99899291992188 182 L -177.99899291992188 178.4980010986328 L -178 178.4980010986328 M -229.0019989013672 180.0030059814453 L -229.0019989013672 182 L -226.0019989013672 182 L -226.0019989013672 176 L -226.0019989013672 175.9969940185547 L -229.0019989013672 175.9969940185547 L -229.0030059814453 175.9969940185547 L -229.0030059814453 176 L -229.0030059814453 180.0030059814453 L -229.0019989013672 180.0030059814453 M -217.0019989013672 178.4980010986328 L -217.0019989013672 182 L -214.00100708007812 182 L -214.00100708007812 178.4980010986328 L -214.0019989013672 178.4980010986328 L -214.0019989013672 176 L -214.0019989013672 175.9969940185547 L -217.0019989013672 175.9969940185547 L -217.0019989013672 176 L -217.0019989013672 178.4980010986328 M -203.0030059814453 182 L -202.00100708007812 182 L -202.00100708007812 176 L -202.00100708007812 175.9969940185547 L -203.0030059814453 175.9969940185547 L -205.00100708007812 175.9969940185547 L -205.00100708007812 176 L -205.00100708007812 182 L -203.0030059814453 182 M -235.00100708007812 77.0009994506836 L -234.9980010986328 77.0009994506836 L -232.0030059814453 77.0009994506836 L -232.0019989013672 77.0009994506836 L -231.9980010986328 77.0009994506836 L -231.9980010986328 62.000999450683594 L -232.0019989013672 62.000999450683594 L -232.0030059814453 62.000999450683594 L -234.9980010986328 62.000999450683594 L -235.00100708007812 62.000999450683594 L -235.0030059814453 62.000999450683594 L -235.10299682617188 62.000999450683594 L -235.10299682617188 77.0009994506836 L -235.0030059814453 77.0009994506836 L -235.00100708007812 77.0009994506836 M -235.0030059814453 19.5 L -235.00100708007812 19.5 L -234.9980010986328 19.5 L -232.0030059814453 19.5 L -232.0019989013672 19.5 L -231.9980010986328 19.5 L -231.9980010986328 -1.5 L -232.0019989013672 -1.5 L -232.0030059814453 -1.5 L -234.9980010986328 -1.5 L -235.00100708007812 -1.5 L -235.0030059814453 -1.5 L -235.10299682617188 -1.5 L -235.10299682617188 19.5 L -235.0030059814453 19.5 M -235.00100708007812 -13 L -234.9980010986328 -13 L -232.0030059814453 -13 L -232.0019989013672 -13 L -231.9980010986328 -13 L -231.9980010986328 -28.000999450683594 L -232.0019989013672 -28.000999450683594 L -232.0030059814453 -28.000999450683594 L -234.9980010986328 -28.000999450683594 L -235.00100708007812 -28.000999450683594 L -235.0030059814453 -28.000999450683594 L -235.10299682617188 -28.000999450683594 L -235.10299682617188 -13 L -235.0030059814453 -13 L -235.00100708007812 -13 M -235.00100708007812 -58.000999450683594 L -235.0030059814453 -58.000999450683594 L -235.10299682617188 -58.000999450683594 L -235.10299682617188 -43.000999450683594 L -235.0030059814453 -43.000999450683594 L -235.00100708007812 -43.000999450683594 L -234.9980010986328 -43.000999450683594 L -232.0030059814453 -43.000999450683594 L -232.0019989013672 -43.000999450683594 L -231.9980010986328 -43.000999450683594 L -231.9980010986328 -58.000999450683594 L -232.0019989013672 -58.000999450683594 L -232.0030059814453 -58.000999450683594 L -234.9980010986328 -58.000999450683594 L -235.00100708007812 -58.000999450683594 M -235.00100708007812 -133.0019989013672 L -234.9980010986328 -133.0019989013672 L -232.0030059814453 -133.0019989013672 L -232.0019989013672 -133.0019989013672 L -231.9980010986328 -133.0019989013672 L -231.9980010986328 -140 L -231.9980010986328 -148.0030059814453 L -232.0019989013672 -148.0030059814453 L -232.0030059814453 -148.0030059814453 L -234.9980010986328 -148.0030059814453 L -235.00100708007812 -148.0030059814453 L -235.0030059814453 -148.0030059814453 L -235.10299682617188 -148.0030059814453 L -235.10299682617188 -140 L -235.10299682617188 -133.0019989013672 L -235.0030059814453 -133.0019989013672 L -235.00100708007812 -133.0019989013672 M -235.00100708007812 -88.00199890136719 L -235.0030059814453 -88.00199890136719 L -235.10299682617188 -88.00199890136719 L -235.10299682617188 -73.0009994506836 L -235.0030059814453 -73.0009994506836 L -235.00100708007812 -73.0009994506836 L -234.9980010986328 -73.0009994506836 L -232.0030059814453 -73.0009994506836 L -232.0019989013672 -73.0009994506836 L -231.9980010986328 -73.0009994506836 L -231.9980010986328 -88.00199890136719 L -232.0019989013672 -88.00199890136719 L -232.0030059814453 -88.00199890136719 L -234.9980010986328 -88.00199890136719 L -235.00100708007812 -88.00199890136719 M -211.00100708007812 -156.9980010986328 L -211.00100708007812 -157 L -211.00100708007812 -163 L -214.00100708007812 -163 L -214.00100708007812 -157 L -214.00100708007812 -156.9980010986328 L -211.00100708007812 -156.9980010986328 M -208.00100708007812 -156.9980010986328 L -205.00100708007812 -156.9980010986328 L -205.00100708007812 -157 L -205.00100708007812 -163 L -208.00100708007812 -163 L -208.00100708007812 -157 L -208.00100708007812 -156.9980010986328 M -235.00100708007812 -103.00199890136719 L -234.9980010986328 -103.00199890136719 L -232.0030059814453 -103.00199890136719 L -232.0019989013672 -103.00199890136719 L -231.9980010986328 -103.00199890136719 L -231.9980010986328 -118.00199890136719 L -232.0019989013672 -118.00199890136719 L -232.0030059814453 -118.00199890136719 L -234.9980010986328 -118.00199890136719 L -235.00100708007812 -118.00199890136719 L -235.0030059814453 -118.00199890136719 L -235.10299682617188 -118.00199890136719 L -235.10299682617188 -103.00199890136719 L -235.0030059814453 -103.00199890136719 L -235.00100708007812 -103.00199890136719 M -144.9969940185547 -156.9980010986328 L -144.9969940185547 -157 L -144.9969940185547 -163 L -147.9980010986328 -163 L -147.9980010986328 -157 L -147.9980010986328 -156.9980010986328 L -144.9969940185547 -156.9980010986328 M -217.0019989013672 -156.9980010986328 L -217.0019989013672 -157 L -217.0019989013672 -163 L -220.0019989013672 -163 L -220.0019989013672 -157 L -220.0019989013672 -156.9980010986328 L -217.0019989013672 -156.9980010986328 M -235.00100708007812 32 L -235.0030059814453 32 L -235.10299682617188 32 L -235.10299682617188 47.000999450683594 L -235.0030059814453 47.000999450683594 L -235.00100708007812 47.000999450683594 L -234.9980010986328 47.000999450683594 L -232.0030059814453 47.000999450683594 L -232.0019989013672 47.000999450683594 L -231.9980010986328 47.000999450683594 L -231.9980010986328 32 L -232.0019989013672 32 L -232.0030059814453 32 L -234.9980010986328 32 L -235.00100708007812 32 M -232.0030059814453 -156.9980010986328 L -232.0019989013672 -156.9980010986328 L -231.9980010986328 -156.9980010986328 L -229.0030059814453 -156.9980010986328 L -229.0019989013672 -156.9980010986328 L -229.0019989013672 -157 L -229.0019989013672 -163 L -232.0030059814453 -163 L -232.0030059814453 -157 L -232.0030059814453 -156.9980010986328 M -223.0019989013672 -156.9980010986328 L -223.0019989013672 -157 L -223.0019989013672 -163 L -226.0019989013672 -163 L -226.0019989013672 -157 L -226.0019989013672 -156.9980010986328 L -223.0019989013672 -156.9980010986328 M -235.00100708007812 92.0009994506836 L -235.0030059814453 92.0009994506836 L -235.10299682617188 92.0009994506836 L -235.10299682617188 107.00199890136719 L -235.0030059814453 107.00199890136719 L -235.00100708007812 107.00199890136719 L -234.9980010986328 107.00199890136719 L -232.0030059814453 107.00199890136719 L -232.0019989013672 107.00199890136719 L -231.9980010986328 107.00199890136719 L -231.9980010986328 92.0009994506836 L -232.0019989013672 92.0009994506836 L -232.0030059814453 92.0009994506836 L -234.9980010986328 92.0009994506836 L -235.00100708007812 92.0009994506836 M -162.99899291992188 -156.9980010986328 L -162.99899291992188 -157 L -162.99899291992188 -163 L -165.99899291992188 -163 L -165.99899291992188 -157 L -165.99899291992188 -156.9980010986328 L -162.99899291992188 -156.9980010986328 M -159.9980010986328 -156.9980010986328 L -156.9980010986328 -156.9980010986328 L -156.9980010986328 -157 L -156.9980010986328 -163 L -159.9980010986328 -163 L -159.9980010986328 -157 L -159.9980010986328 -156.9980010986328 M -235.0030059814453 122.00199890136719 L -235.10299682617188 122.00199890136719 L -235.10299682617188 137.0019989013672 L -235.0030059814453 137.0019989013672 L -235.00100708007812 137.0019989013672 L -234.9980010986328 137.0019989013672 L -232.0030059814453 137.0019989013672 L -232.0019989013672 137.0019989013672 L -231.9980010986328 137.0019989013672 L -231.9980010986328 122.00199890136719 L -232.0019989013672 122.00199890136719 L -232.0030059814453 122.00199890136719 L -234.9980010986328 122.00199890136719 L -235.00100708007812 122.00199890136719 L -235.0030059814453 122.00199890136719 M -184 -156.9980010986328 L -181 -156.9980010986328 L -181 -157 L -181 -163 L -184 -163 L -184 -157 L -184 -156.9980010986328 M -168.99899291992188 -156.9980010986328 L -168.99899291992188 -157 L -168.99899291992188 -163 L -171.99899291992188 -163 L -171.99899291992188 -157 L -171.99899291992188 -156.9980010986328 L -168.99899291992188 -156.9980010986328 M -153.9980010986328 -156.9980010986328 L -150.9980010986328 -156.9980010986328 L -150.9980010986328 -157 L -150.9980010986328 -163 L -153.9980010986328 -163 L -153.9980010986328 -157 L -153.9980010986328 -156.9980010986328 M -235.10299682617188 152.0019989013672 L -235.10299682617188 159 L -235.10299682617188 160 L -235.10299682617188 167.0030059814453 L -235.0030059814453 167.0030059814453 L -235.00100708007812 167.0030059814453 L -234.9980010986328 167.0030059814453 L -232.0030059814453 167.0030059814453 L -232.0019989013672 167.0030059814453 L -231.9980010986328 167.0030059814453 L -231.9980010986328 160 L -231.9980010986328 159 L -231.9980010986328 152.0019989013672 L -232.0019989013672 152.0019989013672 L -232.0030059814453 152.0019989013672 L -234.9980010986328 152.0019989013672 L -235.00100708007812 152.0019989013672 L -235.0030059814453 152.0019989013672 L -235.10299682617188 152.0019989013672 M -187 -156.9980010986328 L -187 -157 L -187 -163 L -190 -163 L -190 -157 L -190 -156.9980010986328 L -187 -156.9980010986328 M -177.99899291992188 -156.9980010986328 L -174.99899291992188 -156.9980010986328 L -174.99899291992188 -157 L -174.99899291992188 -163 L -177.99899291992188 -163 L -177.99899291992188 -157 L -177.99899291992188 -156.9980010986328 M -202.00100708007812 -163 L -202.00100708007812 -157 L -202.00100708007812 -156.9980010986328 L -199.00100708007812 -156.9980010986328 L -199.00100708007812 -157 L -199.00100708007812 -163 L -202.00100708007812 -163 M -187 175.9969940185547 L -187 176 L -187 182 L -184 182 L -184 176 L -184 175.9969940185547 L -187 175.9969940185547 M -171.99899291992188 175.9969940185547 L -174.99899291992188 175.9969940185547 L -174.99899291992188 176 L -174.99899291992188 182 L -171.99899291992188 182 L -171.99899291992188 176 L -171.99899291992188 175.9969940185547 M -162.99899291992188 175.9969940185547 L -162.99899291992188 176 L -162.99899291992188 182 L -159.9980010986328 182 L -159.9980010986328 176 L -159.9980010986328 175.9969940185547 L -162.99899291992188 175.9969940185547 M -153.9980010986328 175.9969940185547 L -156.9980010986328 175.9969940185547 L -156.9980010986328 176 L -156.9980010986328 182 L -153.9980010986328 182 L -153.9980010986328 176 L -153.9980010986328 175.9969940185547 M -147.9980010986328 175.9969940185547 L -150.9980010986328 175.9969940185547 L -150.9980010986328 176 L -150.9980010986328 182 L -147.9980010986328 182 L -147.9980010986328 176 L -147.9980010986328 175.9969940185547 M -196 -163 L -196 -157 L -196 -156.9980010986328 L -193 -156.9980010986328 L -193 -157 L -193 -163 L -196 -163 M -220.0019989013672 175.9969940185547 L -223.0019989013672 175.9969940185547 L -223.0019989013672 176 L -223.0019989013672 182 L -220.0019989013672 182 L -220.0019989013672 176 L -220.0019989013672 175.9969940185547 M -208.00100708007812 176 L -208.00100708007812 175.9969940185547 L -211.00100708007812 175.9969940185547 L -211.00100708007812 176 L -211.00100708007812 182 L -208.00100708007812 182 L -208.00100708007812 176 M -190 182 L -190 176 L -190 175.9969940185547 L -193 175.9969940185547 L -193 176 L -193 182 L -190 182 M -165.99899291992188 182 L -165.99899291992188 176 L -165.99899291992188 175.9969940185547 L -168.99899291992188 175.9969940185547 L -168.99899291992188 176 L -168.99899291992188 182 L -165.99899291992188 182 z" fill="none" stroke="rgb(255,0,0)" stroke-width="0.001mm" />
</svg>