<?xml version="1.0" standalone="no"?>
<!DOCTYPE svg PUBLIC "-//W3C//DTD SVG 1.1//EN"
  "http://www.w3.org/Graphics/SVG/1.1/DTD/svg11.dtd">
<svg width="107mm" height="353mm" viewBox="-364 -156 107 353" xmlns="http://www.w3.org/2000/svg" version="1.1">
	<title>svgOutput</title>
	<desc>made with tinkercad</desc>
<path d="M -342.00201416015625 -148.9969940185547 L -342.00201416015625 -149 L -342.00201416015625 -152 L -345.00201416015625 -152 L -345.00201416015625 -149 L -345.00201416015625 -148.9969940185547 L -345.00201416015625 -145.9980010986328 L -342.00201416015625 -145.9980010986328 L -342.00201416015625 -148.9969940185547 M -321 -148.9969940185547 L -321 -145.9980010986328 L -318.0010070800781 -145.9980010986328 L -318 -145.9980010986328 L -318 -149 L -318 -149.0030059814453 L -318.0010070800781 -149.0030059814453 L -318.0010070800781 -152 L -321.0010070800781 -152 L -321.0010070800781 -149 L -321.0010070800781 -148.9969940185547 L -321 -148.9969940185547 M -339.0010070800781 -148.9969940185547 L -339.0010070800781 -145.9980010986328 L -336.0010070800781 -145.9980010986328 L -336.0010070800781 -148.9969940185547 L -336.0010070800781 -149 L -336.0010070800781 -152 L -339.00201416015625 -152 L -339.00201416015625 -149 L -339.00201416015625 -148.9969940185547 L -339.0010070800781 -148.9969940185547 M -324.0010070800781 -148.9969940185547 L -324.0010070800781 -149 L -324.0010070800781 -152 L -327.0010070800781 -152 L -327.0010070800781 -149 L -327.0010070800781 -148.9969940185547 L -327.0010070800781 -145.9980010986328 L -324.0010070800781 -145.9980010986328 L -324.0010070800781 -148.9969940185547 M -258 196 L -363 196 L -363 193 L -360.00299072265625 193 L -357.00201416015625 193 L -357.00201416015625 190 L -357.00201416015625 189.9980010986328 L -357.00201416015625 186.9980010986328 L -360 186.9980010986328 L -360 189.9980010986328 L -360 190 L -360.00299072265625 190 L -363 190 L -363 -149 L -360.00299072265625 -149 L -360.00299072265625 -152 L -363 -152 L -363 -155 L -258 -155 L -258 -152 L -258.00299072265625 -152 L -260.99798583984375 -152 L -260.99798583984375 -149 L -260.99798583984375 -148.9969940185547 L -258.00299072265625 -148.9969940185547 L -258.00299072265625 -30.11199951171875 L -258.26800537109375 -30.37700080871582 L -260.99798583984375 -27.64699935913086 L -263.99798583984375 -24.64699935913086 L -264.6419982910156 -24.003000259399414 L -266.99798583984375 -24.003000259399414 L -269.99798583984375 -24.003000259399414 L -271.00299072265625 -24.003000259399414 L -271.00299072265625 -8.998000144958496 L -269.99798583984375 -8.998000144958496 L -266.99798583984375 -8.998000144958496 L -265.10699462890625 -8.998000144958496 L -263.99798583984375 -7.888999938964844 L -260.99798583984375 -4.888999938964844 L -258.00299072265625 -1.8940000534057617 L -258.00299072265625 5.498000144958496 L -258.00299072265625 35.50299835205078 L -258.00299072265625 190 L -258.00299072265625 193 L -258 193 L -258 196 M -275.99798583984375 189.9980010986328 L -275.99798583984375 190 L -275.99798583984375 193 L -272.99798583984375 193 L -272.99798583984375 190 L -272.99798583984375 189.9980010986328 L -272.99798583984375 186.9980010986328 L -275.99798583984375 186.9980010986328 L -275.99798583984375 189.9980010986328 M -267.99798583984375 189.9980010986328 L -267.99798583984375 186.9980010986328 L -269.99798583984375 186.9980010986328 L -269.99798583984375 189.9980010986328 L -269.99798583984375 190 L -269.99798583984375 193 L -266.99798583984375 193 L -266.99798583984375 190 L -266.99798583984375 189.9980010986328 L -267.99798583984375 189.9980010986328 M -324.0010070800781 189.9980010986328 L -324.0010070800781 190 L -324.0010070800781 193 L -321.0010070800781 193 L -321.0010070800781 190.0030059814453 L -321 190.0030059814453 L -321 190 L -321 186.9980010986328 L -321.0010070800781 186.9980010986328 L -324.0010070800781 186.9980010986328 L -324.0010070800781 189.9980010986328 M -269.99798583984375 -148.9969940185547 L -269.99798583984375 -149 L -269.99798583984375 -152 L -272.99798583984375 -152 L -272.99798583984375 -149 L -272.99798583984375 -148.9969940185547 L -272.99798583984375 -145.9980010986328 L -271.00299072265625 -145.9980010986328 L -269.99798583984375 -145.9980010986328 L -269.99798583984375 -148.9969940185547 M -281.99798583984375 189.9980010986328 L -281.9989929199219 189.9980010986328 L -281.9989929199219 190 L -281.9989929199219 190.0030059814453 L -281.9989929199219 193 L -278.99798583984375 193 L -278.99798583984375 190 L -278.99798583984375 189.9980010986328 L -278.99798583984375 186.9980010986328 L -281.99798583984375 186.9980010986328 L -281.99798583984375 189.9980010986328 M -275.99798583984375 -148.9969940185547 L -275.99798583984375 -149 L -275.99798583984375 -152 L -278.9989929199219 -152 L -278.9989929199219 -149.0030059814453 L -278.9989929199219 -149 L -278.9989929199219 -148.9969940185547 L -278.99798583984375 -148.9969940185547 L -278.99798583984375 -145.9980010986328 L -275.99798583984375 -145.9980010986328 L -275.99798583984375 -148.9969940185547 M -287.9989929199219 189.9980010986328 L -287.9989929199219 190 L -287.9989929199219 193 L -284.9989929199219 193 L -284.9989929199219 190.0030059814453 L -284.99798583984375 190.0030059814453 L -284.99798583984375 190 L -284.99798583984375 186.9980010986328 L -284.9989929199219 186.9980010986328 L -287.9989929199219 186.9980010986328 L -287.9989929199219 189.9980010986328 M -342.00201416015625 189.9980010986328 L -342.00201416015625 190 L -342.00201416015625 193 L -339.0010070800781 193 L -339.0010070800781 190 L -339.0010070800781 189.9980010986328 L -339.0010070800781 186.9980010986328 L -342.00201416015625 186.9980010986328 L -342.00201416015625 189.9980010986328 M -354.00201416015625 -148.9969940185547 L -354.00201416015625 -149 L -354.00201416015625 -152 L -357.00299072265625 -152 L -357.00299072265625 -149 L -357.00299072265625 -148.9969940185547 L -357.00299072265625 -145.9980010986328 L -356.99798583984375 -145.9980010986328 L -354.00201416015625 -145.9980010986328 L -354.00201416015625 -148.9969940185547 M -348.00201416015625 -148.9969940185547 L -348.00201416015625 -149 L -348.00201416015625 -152 L -351.00201416015625 -152 L -351.00201416015625 -149 L -351.00201416015625 -148.9969940185547 L -351.00201416015625 -145.9980010986328 L -348.00201416015625 -145.9980010986328 L -348.00201416015625 -148.9969940185547 M -293.9989929199219 189.9980010986328 L -293.9989929199219 190 L -293.9989929199219 193 L -290.9989929199219 193 L -290.9989929199219 190 L -290.9989929199219 189.9980010986328 L -290.9989929199219 186.9980010986328 L -293.9989929199219 186.9980010986328 L -293.9989929199219 189.9980010986328 M -330.0010070800781 -148.9969940185547 L -330.0010070800781 -149 L -330.0010070800781 -152 L -333.0010070800781 -152 L -333.0010070800781 -149 L -333.0010070800781 -148.9969940185547 L -333.0010070800781 -145.9980010986328 L -330.0010070800781 -145.9980010986328 L -330.0010070800781 -148.9969940185547 M -299.9989929199219 189.9980010986328 L -299.9989929199219 190 L -299.9989929199219 190.0030059814453 L -299.9989929199219 193 L -296.9989929199219 193 L -296.9989929199219 190 L -296.9989929199219 189.9980010986328 L -296.9989929199219 186.9980010986328 L -299.9989929199219 186.9980010986328 L -299.9989929199219 189.9980010986328 M -330.0010070800781 189.9980010986328 L -330.0010070800781 190 L -330.0010070800781 193 L -327.0010070800781 193 L -327.0010070800781 190 L -327.0010070800781 189.9980010986328 L -327.0010070800781 186.9980010986328 L -330.0010070800781 186.9980010986328 L -330.0010070800781 189.9980010986328 M -336.0010070800781 189.9980010986328 L -336.0010070800781 190 L -336.0010070800781 193 L -333.0010070800781 193 L -333.0010070800781 190 L -333.0010070800781 189.9980010986328 L -333.0010070800781 186.9980010986328 L -336.0010070800781 186.9980010986328 L -336.0010070800781 189.9980010986328 M -312 -148.9969940185547 L -312 -149 L -312 -152 L -315 -152 L -315 -149.0030059814453 L -315 -149 L -315 -148.9969940185547 L -315 -145.9980010986328 L -312 -145.9980010986328 L -312 -148.9969940185547 M -318 189.9980010986328 L -318 190 L -318 190.0030059814453 L -318 193 L -315 193 L -315 190 L -315 189.9980010986328 L -315 186.9980010986328 L -318 186.9980010986328 L -318 189.9980010986328 M -302.9989929199219 -148.9969940185547 L -302.9989929199219 -145.9980010986328 L -300 -145.9980010986328 L -299.9989929199219 -145.9980010986328 L -299.9989929199219 -149 L -299.9989929199219 -149.0030059814453 L -300 -149.0030059814453 L -300 -152 L -303 -152 L -303 -149 L -303 -148.9969940185547 L -302.9989929199219 -148.9969940185547 M -287.9989929199219 -148.9969940185547 L -287.9989929199219 -149 L -287.9989929199219 -152 L -290.9989929199219 -152 L -290.9989929199219 -149 L -290.9989929199219 -148.9969940185547 L -290.9989929199219 -145.9980010986328 L -287.9989929199219 -145.9980010986328 L -287.9989929199219 -148.9969940185547 M -284.99798583984375 -148.9969940185547 L -284.99798583984375 -145.9980010986328 L -281.9989929199219 -145.9980010986328 L -281.99798583984375 -145.9980010986328 L -281.99798583984375 -149 L -281.99798583984375 -149.0030059814453 L -281.9989929199219 -149.0030059814453 L -281.9989929199219 -152 L -284.9989929199219 -152 L -284.9989929199219 -149 L -284.9989929199219 -148.9969940185547 L -284.99798583984375 -148.9969940185547 M -306 -148.9969940185547 L -306 -149 L -306 -152 L -309 -152 L -309 -149 L -309 -148.9969940185547 L -309 -145.9980010986328 L -306 -145.9980010986328 L -306 -148.9969940185547 M -354.00201416015625 189.9980010986328 L -354.00201416015625 190 L -354.00201416015625 193 L -351.00201416015625 193 L -351.00201416015625 190 L -351.00201416015625 189.9980010986328 L -351.00201416015625 186.9980010986328 L -354.00201416015625 186.9980010986328 L -354.00201416015625 189.9980010986328 M -348.00201416015625 189.9980010986328 L -348.00201416015625 190 L -348.00201416015625 193 L -345.00201416015625 193 L -345.00201416015625 190 L -345.00201416015625 189.9980010986328 L -345.00201416015625 186.9980010986328 L -348.00201416015625 186.9980010986328 L -348.00201416015625 189.9980010986328 M -293.9989929199219 -148.9969940185547 L -293.9989929199219 -149 L -293.9989929199219 -152 L -296.9989929199219 -152 L -296.9989929199219 -149.0030059814453 L -296.9989929199219 -149 L -296.9989929199219 -148.9969940185547 L -296.9989929199219 -145.9980010986328 L -293.9989929199219 -145.9980010986328 L -293.9989929199219 -148.9969940185547 M -312 189.9980010986328 L -312 190 L -312 193 L -309 193 L -309 190 L -309 189.9980010986328 L -309 186.9980010986328 L -312 186.9980010986328 L -312 189.9980010986328 M -306 189.9980010986328 L -306 190 L -306 193 L -303 193 L -303 190.0030059814453 L -302.9989929199219 190.0030059814453 L -302.9989929199219 190 L -302.9989929199219 186.9980010986328 L -303 186.9980010986328 L -306 186.9980010986328 L -306 189.9980010986328 M -360 10.498000144958496 L -360 30.503000259399414 L -352.99798583984375 30.503000259399414 L -352.99798583984375 10.498000144958496 L -352.99798583984375 9.498000144958496 L -360 9.498000144958496 L -360 10.498000144958496 M -356.99798583984375 103.0009994506836 L -357.00201416015625 103.0009994506836 L -360 103.0009994506836 L -360 118.00199890136719 L -357.00201416015625 118.00199890136719 L -356.99798583984375 118.00199890136719 L -356.99798583984375 103.0009994506836 M -356.99798583984375 133.0019989013672 L -357.00201416015625 133.0019989013672 L -360 133.0019989013672 L -360 148.0019989013672 L -357.00201416015625 148.0019989013672 L -356.99798583984375 148.0019989013672 L -356.99798583984375 133.0019989013672 M -356.99798583984375 178.0030059814453 L -356.99798583984375 163.0019989013672 L -357.00201416015625 163.0019989013672 L -360 163.0019989013672 L -360 178.0030059814453 L -357.00201416015625 178.0030059814453 L -356.99798583984375 178.0030059814453 M -357.00299072265625 -107.00199890136719 L -360 -107.00199890136719 L -360 -92.00199890136719 L -357.00299072265625 -92.00199890136719 L -356.99798583984375 -92.00199890136719 L -356.99798583984375 -107.00199890136719 L -357.00299072265625 -107.00199890136719 M -356.99798583984375 43 L -357.00201416015625 43 L -360 43 L -360 58.000999450683594 L -357.00201416015625 58.000999450683594 L -356.99798583984375 58.000999450683594 L -356.99798583984375 43 M -357.00299072265625 -137.0030059814453 L -360 -137.0030059814453 L -360 -122.00199890136719 L -357.00299072265625 -122.00199890136719 L -356.99798583984375 -122.00199890136719 L -356.99798583984375 -137.0030059814453 L -357.00299072265625 -137.0030059814453 M -360 88.0009994506836 L -357.00201416015625 88.0009994506836 L -356.99798583984375 88.0009994506836 L -356.99798583984375 73.0009994506836 L -357.00201416015625 73.0009994506836 L -360 73.0009994506836 L -360 88.0009994506836 M -357.00299072265625 -47.000999450683594 L -360 -47.000999450683594 L -360 -32.000999450683594 L -357.00299072265625 -32.000999450683594 L -356.99798583984375 -32.000999450683594 L -356.99798583984375 -47.000999450683594 L -357.00299072265625 -47.000999450683594 M -260.99798583984375 189.9980010986328 L -263.99798583984375 189.9980010986328 L -263.99798583984375 190 L -263.99798583984375 193 L -260.99798583984375 193 L -260.99798583984375 190 L -260.99798583984375 189.9980010986328 M -266.99798583984375 -149 L -266.99798583984375 -148.9969940185547 L -263.99798583984375 -148.9969940185547 L -263.99798583984375 -149 L -263.99798583984375 -152 L -266.99798583984375 -152 L -266.99798583984375 -149 M -357.00299072265625 -62.000999450683594 L -356.99798583984375 -62.000999450683594 L -356.99798583984375 -77.00199890136719 L -357.00299072265625 -77.00199890136719 L -360 -77.00199890136719 L -360 -62.000999450683594 L -357.00299072265625 -62.000999450683594 M -357.00299072265625 -17.000999450683594 L -360 -17.000999450683594 L -360 -2 L -357.00299072265625 -2 L -356.99798583984375 -2 L -356.99798583984375 -17.000999450683594 L -357.00299072265625 -17.000999450683594 M -265.0060119628906 8.50100040435791 L -265.0060119628906 30.503000259399414 L -265.0060119628906 32.5 L -261.5 32.5 L -261.5 8.50100040435791 L -265.0060119628906 8.50100040435791 z" fill="none" stroke="rgb(255,0,0)" stroke-width="0.001mm" />
</svg>