<?xml version="1.0" standalone="no"?>
<!DOCTYPE svg PUBLIC "-//W3C//DTD SVG 1.1//EN"
  "http://www.w3.org/Graphics/SVG/1.1/DTD/svg11.dtd">
<svg width="107mm" height="353mm" viewBox="342 -161 107 353" xmlns="http://www.w3.org/2000/svg" version="1.1">
	<title>svgOutput</title>
	<desc>made with tinkercad</desc>
<path d="M 406 -153.9980010986328 L 406.0010070800781 -153.9980010986328 L 406.0010070800781 -157 L 403.0010070800781 -157 L 403.0010070800781 -154.0030059814453 L 403 -154.0030059814453 L 403 -150.9980010986328 L 403.0010070800781 -150.9980010986328 L 406 -150.9980010986328 L 406 -153.9980010986328 M 412.0010070800781 -153.9980010986328 L 412.0010070800781 -157 L 409.0010070800781 -157 L 409.0010070800781 -153.9980010986328 L 409.0010070800781 -150.9980010986328 L 412.0010070800781 -150.9980010986328 L 412.0010070800781 -153.9980010986328 M 394 -153.9980010986328 L 394 -157 L 391 -157 L 391 -153.9980010986328 L 391 -150.9980010986328 L 394 -150.9980010986328 L 394 -153.9980010986328 M 418.0010070800781 -153.9980010986328 L 418.0010070800781 -157 L 415.0010070800781 -157 L 415.0010070800781 -153.9980010986328 L 415.0010070800781 -150.9980010986328 L 418.0010070800781 -150.9980010986328 L 418.0010070800781 -153.9980010986328 M 387.9989929199219 -153.9980010986328 L 388 -153.9980010986328 L 388 -157 L 385 -157 L 385 -154.0030059814453 L 384.9989929199219 -154.0030059814453 L 384.9989929199219 -150.9980010986328 L 385 -150.9980010986328 L 387.9989929199219 -150.9980010986328 L 387.9989929199219 -153.9980010986328 M 424.0010070800781 -153.9980010986328 L 424.00201416015625 -153.9980010986328 L 424.00201416015625 -157 L 421.0010070800781 -157 L 421.0010070800781 -153.9980010986328 L 421.0010070800781 -150.9980010986328 L 424.0010070800781 -150.9980010986328 L 424.0010070800781 -153.9980010986328 M 375.9989929199219 -153.9980010986328 L 375.9989929199219 -157 L 372.9989929199219 -157 L 372.9989929199219 -153.9980010986328 L 372.9989929199219 -150.9980010986328 L 375.9989929199219 -150.9980010986328 L 375.9989929199219 -153.9980010986328 M 430.00201416015625 -153.9980010986328 L 430.00201416015625 -157 L 427.00201416015625 -157 L 427.00201416015625 -153.9980010986328 L 427.00201416015625 -150.9980010986328 L 430.00201416015625 -150.9980010986328 L 430.00201416015625 -153.9980010986328 M 369.99798583984375 -153.9980010986328 L 369.9989929199219 -153.9980010986328 L 369.9989929199219 -157 L 366.9989929199219 -157 L 366.9989929199219 -154.0030059814453 L 366.99798583984375 -154.0030059814453 L 366.99798583984375 -150.9980010986328 L 366.9989929199219 -150.9980010986328 L 369.99798583984375 -150.9980010986328 L 369.99798583984375 -153.9980010986328 M 436.00201416015625 -153.9980010986328 L 436.00201416015625 -157 L 433.00201416015625 -157 L 433.00201416015625 -153.9980010986328 L 433.00201416015625 -150.9980010986328 L 436.00201416015625 -150.9980010986328 L 436.00201416015625 -153.9980010986328 M 363.99798583984375 -153.9980010986328 L 363.9989929199219 -153.9980010986328 L 363.9989929199219 -154.0030059814453 L 363.9989929199219 -157 L 360.99798583984375 -157 L 360.99798583984375 -153.9980010986328 L 360.99798583984375 -150.9980010986328 L 363.99798583984375 -150.9980010986328 L 363.99798583984375 -153.9980010986328 M 442.00299072265625 -153.9980010986328 L 442.00299072265625 -157 L 439.00201416015625 -157 L 439.00201416015625 -153.9980010986328 L 439.00201416015625 -150.9980010986328 L 441.99798583984375 -150.9980010986328 L 442.00299072265625 -150.9980010986328 L 442.00299072265625 -153.9980010986328 M 448 185 L 445.00299072265625 185 L 445 185 L 445 184.947998046875 L 445 181.94700622558594 L 442.00201416015625 181.94700622558594 L 442.00201416015625 184.947998046875 L 442.00201416015625 185 L 442.00201416015625 188 L 445.00299072265625 188 L 448 188 L 448 191 L 445.00299072265625 191 L 343.00299072265625 191 L 343 191 L 343 188 L 343.00299072265625 188 L 343.00299072265625 184.947998046875 L 343.00299072265625 181.94700622558594 L 343.00299072265625 30.503000259399414 L 343.00299072265625 0.49799999594688427 L 343.00299072265625 -6.894000053405762 L 350.10699462890625 -13.998000144958496 L 356.00299072265625 -13.998000144958496 L 356.00299072265625 -29.003000259399414 L 349.6419982910156 -29.003000259399414 L 343.26800537109375 -35.37699890136719 L 343.00299072265625 -35.11199951171875 L 343.00299072265625 -153.9980010986328 L 345.99798583984375 -153.9980010986328 L 345.99798583984375 -157 L 343.00299072265625 -157 L 343 -157 L 343 -160 L 448 -160 L 448 -157 L 445.00299072265625 -157 L 445.00299072265625 -154 L 448 -154 L 448 185 M 357.99798583984375 -153.9980010986328 L 357.99798583984375 -157 L 356.00299072265625 -157 L 354.99798583984375 -157 L 354.99798583984375 -153.9980010986328 L 354.99798583984375 -150.9980010986328 L 356.00299072265625 -150.9980010986328 L 357.99798583984375 -150.9980010986328 L 357.99798583984375 -153.9980010986328 M 366.99798583984375 184.89700317382812 L 366.99798583984375 181.94700622558594 L 363.99798583984375 181.94700622558594 L 363.99798583984375 184.947998046875 L 363.99798583984375 188 L 366.9989929199219 188 L 366.9989929199219 184.95199584960938 L 366.9989929199219 184.947998046875 L 366.9989929199219 184.89700317382812 L 366.99798583984375 184.89700317382812 M 378.9989929199219 -153.9980010986328 L 378.9989929199219 -150.9980010986328 L 381.9989929199219 -150.9980010986328 L 381.9989929199219 -153.9980010986328 L 381.9989929199219 -154.0030059814453 L 381.9989929199219 -157 L 378.9989929199219 -157 L 378.9989929199219 -153.9980010986328 M 397 -153.9980010986328 L 397 -150.9980010986328 L 400 -150.9980010986328 L 400 -153.9980010986328 L 400 -154.0030059814453 L 400 -157 L 397 -157 L 397 -153.9980010986328 M 441.99798583984375 -7 L 442.00299072265625 -7 L 445 -7 L 445 -22.000999450683594 L 442.00299072265625 -22.000999450683594 L 441.99798583984375 -22.000999450683594 L 441.99798583984375 -7 M 437.99798583984375 5.498000144958496 L 437.99798583984375 25.503000259399414 L 445 25.503000259399414 L 445 5.498000144958496 L 445 4.498000144958496 L 437.99798583984375 4.498000144958496 L 437.99798583984375 5.498000144958496 M 352.99798583984375 184.89700317382812 L 351.99798583984375 184.89700317382812 L 351.99798583984375 184.947998046875 L 351.99798583984375 188 L 354.99798583984375 188 L 354.99798583984375 184.947998046875 L 354.99798583984375 181.94700622558594 L 352.99798583984375 181.94700622558594 L 352.99798583984375 184.89700317382812 M 430.00201416015625 181.94700622558594 L 430.00201416015625 184.947998046875 L 430.00201416015625 188 L 433.00201416015625 188 L 433.00201416015625 184.947998046875 L 433.00201416015625 181.94700622558594 L 430.00201416015625 181.94700622558594 M 439.00201416015625 188 L 439.00201416015625 184.947998046875 L 439.00201416015625 181.94700622558594 L 436.00201416015625 181.94700622558594 L 436.00201416015625 184.947998046875 L 436.00201416015625 188 L 439.00201416015625 188 M 412.0010070800781 181.94700622558594 L 412.0010070800781 184.947998046875 L 412.0010070800781 188 L 415.0010070800781 188 L 415.0010070800781 184.947998046875 L 415.0010070800781 181.94700622558594 L 412.0010070800781 181.94700622558594 M 427.00201416015625 188 L 427.00201416015625 184.947998046875 L 427.00201416015625 181.94700622558594 L 424.0010070800781 181.94700622558594 L 424.0010070800781 184.947998046875 L 424.0010070800781 188 L 427.00201416015625 188 M 394 181.94700622558594 L 394 184.947998046875 L 394 188 L 397 188 L 397 184.947998046875 L 397 181.94700622558594 L 394 181.94700622558594 M 421.0010070800781 188 L 421.0010070800781 184.947998046875 L 421.0010070800781 181.94700622558594 L 418.0010070800781 181.94700622558594 L 418.0010070800781 184.947998046875 L 418.0010070800781 188 L 421.0010070800781 188 M 375.9989929199219 181.94700622558594 L 375.9989929199219 184.947998046875 L 375.9989929199219 188 L 378.9989929199219 188 L 378.9989929199219 184.947998046875 L 378.9989929199219 181.94700622558594 L 375.9989929199219 181.94700622558594 M 357.99798583984375 181.94700622558594 L 357.99798583984375 184.947998046875 L 357.99798583984375 188 L 360.99798583984375 188 L 360.99798583984375 184.947998046875 L 360.99798583984375 181.94700622558594 L 357.99798583984375 181.94700622558594 M 445 38 L 441.99798583984375 38 L 441.99798583984375 53.000999450683594 L 445 53.000999450683594 L 445 38 M 345.99798583984375 184.89700317382812 L 345.99798583984375 184.947998046875 L 345.99798583984375 188 L 348.99798583984375 188 L 348.99798583984375 184.947998046875 L 348.99798583984375 184.89700317382812 L 345.99798583984375 184.89700317382812 M 445 83.0009994506836 L 445 68.0009994506836 L 441.99798583984375 68.0009994506836 L 441.99798583984375 83.0009994506836 L 445 83.0009994506836 M 369.99798583984375 181.94700622558594 L 369.99798583984375 184.947998046875 L 369.99798583984375 184.95199584960938 L 369.9989929199219 184.95199584960938 L 369.9989929199219 188 L 372.9989929199219 188 L 372.9989929199219 184.947998046875 L 372.9989929199219 181.94700622558594 L 369.99798583984375 181.94700622558594 M 445 128.0019989013672 L 441.99798583984375 128.0019989013672 L 441.99798583984375 143.0019989013672 L 445 143.0019989013672 L 445 128.0019989013672 M 445 113.00199890136719 L 445 98.0009994506836 L 441.99798583984375 98.0009994506836 L 441.99798583984375 113.00199890136719 L 445 113.00199890136719 M 381.9989929199219 181.94700622558594 L 381.9989929199219 184.947998046875 L 381.9989929199219 188 L 384.9989929199219 188 L 384.9989929199219 184.95199584960938 L 384.9989929199219 184.947998046875 L 384.9989929199219 181.94700622558594 L 381.9989929199219 181.94700622558594 M 409.0010070800781 188 L 409.0010070800781 184.947998046875 L 409.0010070800781 181.94700622558594 L 406 181.94700622558594 L 406 184.947998046875 L 406 184.95199584960938 L 406.0010070800781 184.95199584960938 L 406.0010070800781 188 L 409.0010070800781 188 M 351.99798583984375 -153.9980010986328 L 351.99798583984375 -157 L 348.99798583984375 -157 L 348.99798583984375 -153.9980010986328 L 351.99798583984375 -153.9980010986328 M 445 173.0030059814453 L 445 158.0019989013672 L 441.99798583984375 158.0019989013672 L 441.99798583984375 173.0030059814453 L 445 173.0030059814453 M 442.00299072265625 -142.0030059814453 L 441.99798583984375 -142.0030059814453 L 441.99798583984375 -127.00199890136719 L 442.00299072265625 -127.00199890136719 L 445 -127.00199890136719 L 445 -142.0030059814453 L 442.00299072265625 -142.0030059814453 M 387.9989929199219 181.94700622558594 L 387.9989929199219 184.947998046875 L 387.9989929199219 184.95199584960938 L 388 184.95199584960938 L 388 188 L 391 188 L 391 184.947998046875 L 391 181.94700622558594 L 387.9989929199219 181.94700622558594 M 441.99798583984375 -97.00199890136719 L 442.00299072265625 -97.00199890136719 L 445 -97.00199890136719 L 445 -112.00199890136719 L 442.00299072265625 -112.00199890136719 L 441.99798583984375 -112.00199890136719 L 441.99798583984375 -97.00199890136719 M 400 181.94700622558594 L 400 184.947998046875 L 400 188 L 403 188 L 403 184.95199584960938 L 403 184.947998046875 L 403 181.94700622558594 L 400 181.94700622558594 M 346.5010070800781 3.500999927520752 L 346.5010070800781 27.5 L 350.0060119628906 27.5 L 350.0060119628906 3.500999927520752 L 346.5010070800781 3.500999927520752 M 445 -37.000999450683594 L 445 -52.000999450683594 L 442.00299072265625 -52.000999450683594 L 441.99798583984375 -52.000999450683594 L 441.99798583984375 -37.000999450683594 L 442.00299072265625 -37.000999450683594 L 445 -37.000999450683594 M 442.00299072265625 -82.00199890136719 L 441.99798583984375 -82.00199890136719 L 441.99798583984375 -67.0009994506836 L 442.00299072265625 -67.0009994506836 L 445 -67.0009994506836 L 445 -82.00199890136719 L 442.00299072265625 -82.00199890136719 z" fill="none" stroke="rgb(255,0,0)" stroke-width="0.001mm" />
</svg>