<?xml version="1.0" standalone="no"?>
<!DOCTYPE svg PUBLIC "-//W3C//DTD SVG 1.1//EN"
  "http://www.w3.org/Graphics/SVG/1.1/DTD/svg11.dtd">
<svg width="297mm" height="103.99801635742188mm" viewBox="-175 -305.50201416015625 297 103.99801635742188" xmlns="http://www.w3.org/2000/svg" version="1.1">
	<title>svgOutput</title>
	<desc>made with tinkercad</desc>
<path d="M 121 -216.5 L 117.99800109863281 -216.5 L 117.99700164794922 -216.5 L 114.99800109863281 -216.5 L 114.99800109863281 -213.5 L 117.99700164794922 -213.5 L 117.99800109863281 -213.5 L 121 -213.5 L 121 -210.49899291992188 L 117.99800109863281 -210.49899291992188 L 117.99700164794922 -210.49899291992188 L 114.99800109863281 -210.49899291992188 L 114.99800109863281 -207.49899291992188 L 117.99700164794922 -207.49899291992188 L 117.99800109863281 -207.49899291992188 L 121 -207.49899291992188 L 121 -204.49899291992188 L 117.99800109863281 -204.49899291992188 L 117.99700164794922 -204.49899291992188 L 114.99800109863281 -204.49899291992188 L 114.99800109863281 -202.50399780273438 L 98.00299835205078 -202.50399780273438 L 14.003000259399414 -202.50399780273438 L 14.003000259399414 -205.50399780273438 L -1.0019999742507935 -205.50399780273438 L -1.0019999742507935 -202.50399780273438 L -11.498000144958496 -202.50399780273438 L -41.50299835205078 -202.50399780273438 L -151 -202.50399780273438 L -151.0019989013672 -202.50399780273438 L -167.9969940185547 -202.50399780273438 L -167.9969940185547 -204.49899291992188 L -170.9969940185547 -204.49899291992188 L -170.9980010986328 -204.49899291992188 L -171 -204.49899291992188 L -174 -204.49899291992188 L -174 -207.49899291992188 L -171 -207.49899291992188 L -170.9980010986328 -207.49899291992188 L -170.9969940185547 -207.49899291992188 L -167.9969940185547 -207.49899291992188 L -167.9969940185547 -210.49899291992188 L -170.9969940185547 -210.49899291992188 L -170.9980010986328 -210.49899291992188 L -171 -210.49899291992188 L -174 -210.49899291992188 L -174 -213.5 L -171 -213.5 L -170.9980010986328 -213.5 L -170.9969940185547 -213.5 L -167.9969940185547 -213.5 L -167.9969940185547 -216.5 L -170.9969940185547 -216.5 L -170.9980010986328 -216.5 L -171 -216.5 L -174 -216.5 L -174 -219.5 L -171 -219.5 L -170.9980010986328 -219.5 L -170.9969940185547 -219.5 L -167.9969940185547 -219.5 L -167.9969940185547 -222.5 L -170.9969940185547 -222.5 L -170.9980010986328 -222.5 L -171 -222.5 L -174 -222.5 L -174 -225.5 L -171 -225.5 L -170.9980010986328 -225.5 L -170.9969940185547 -225.5 L -167.9969940185547 -225.5 L -167.9969940185547 -228.5 L -170.9969940185547 -228.5 L -170.9980010986328 -228.5 L -171 -228.5 L -174 -228.5 L -174 -231.50100708007812 L -171 -231.50100708007812 L -170.9980010986328 -231.50100708007812 L -170.9969940185547 -231.50100708007812 L -167.9969940185547 -231.50100708007812 L -167.9969940185547 -234.50100708007812 L -170.9969940185547 -234.50100708007812 L -170.9980010986328 -234.50100708007812 L -171 -234.50100708007812 L -174 -234.50100708007812 L -174 -237.50100708007812 L -171 -237.50100708007812 L -170.9980010986328 -237.50100708007812 L -170.9969940185547 -237.50100708007812 L -167.9969940185547 -237.50100708007812 L -167.9969940185547 -240.50100708007812 L -170.9969940185547 -240.50100708007812 L -170.9980010986328 -240.50100708007812 L -171 -240.50100708007812 L -174 -240.50100708007812 L -174 -243.50100708007812 L -171 -243.50100708007812 L -170.9980010986328 -243.50100708007812 L -170.9969940185547 -243.50100708007812 L -167.9969940185547 -243.50100708007812 L -167.9969940185547 -246.50100708007812 L -170.9969940185547 -246.50100708007812 L -170.9980010986328 -246.50100708007812 L -171 -246.50100708007812 L -174 -246.50100708007812 L -174 -249.5019989013672 L -171 -249.5019989013672 L -170.9980010986328 -249.5019989013672 L -170.9969940185547 -249.5019989013672 L -167.9969940185547 -249.5019989013672 L -167.9969940185547 -252.5019989013672 L -170.9969940185547 -252.5019989013672 L -170.9980010986328 -252.5019989013672 L -171 -252.5019989013672 L -174 -252.5019989013672 L -174 -255.5019989013672 L -171 -255.5019989013672 L -170.9980010986328 -255.5019989013672 L -170.9969940185547 -255.5019989013672 L -167.9969940185547 -255.5019989013672 L -167.9969940185547 -258.50201416015625 L -170.9969940185547 -258.50201416015625 L -170.9980010986328 -258.50201416015625 L -171 -258.50201416015625 L -174 -258.50201416015625 L -174 -261.50201416015625 L -171 -261.50201416015625 L -170.9980010986328 -261.50201416015625 L -170.9969940185547 -261.50201416015625 L -167.9969940185547 -261.50201416015625 L -167.9969940185547 -264.50201416015625 L -170.9969940185547 -264.50201416015625 L -170.9980010986328 -264.50201416015625 L -171 -264.50201416015625 L -174 -264.50201416015625 L -174 -267.50299072265625 L -171 -267.50299072265625 L -170.9980010986328 -267.50299072265625 L -170.9969940185547 -267.50299072265625 L -167.9969940185547 -267.50299072265625 L -167.9969940185547 -270.50299072265625 L -170.9969940185547 -270.50299072265625 L -170.9980010986328 -270.50299072265625 L -171 -270.50299072265625 L -174 -270.50299072265625 L -174 -273.50299072265625 L -171 -273.50299072265625 L -170.9980010986328 -273.50299072265625 L -170.9969940185547 -273.50299072265625 L -167.9969940185547 -273.50299072265625 L -167.9969940185547 -276.50299072265625 L -170.9969940185547 -276.50299072265625 L -170.9980010986328 -276.50299072265625 L -171 -276.50299072265625 L -174 -276.50299072265625 L -174 -279.50299072265625 L -171 -279.50299072265625 L -170.9980010986328 -279.50299072265625 L -170.9969940185547 -279.50299072265625 L -167.9969940185547 -279.50299072265625 L -167.9969940185547 -282.50299072265625 L -170.9969940185547 -282.50299072265625 L -170.9980010986328 -282.50299072265625 L -171 -282.50299072265625 L -174 -282.50299072265625 L -174 -285.5039978027344 L -171 -285.5039978027344 L -170.9980010986328 -285.5039978027344 L -170.9969940185547 -285.5039978027344 L -167.9969940185547 -285.5039978027344 L -167.9969940185547 -288.5039978027344 L -170.9969940185547 -288.5039978027344 L -170.9980010986328 -288.5039978027344 L -171 -288.5039978027344 L -174 -288.5039978027344 L -174 -291.5039978027344 L -171 -291.5039978027344 L -170.9980010986328 -291.5039978027344 L -170.9969940185547 -291.5039978027344 L -167.9969940185547 -291.5039978027344 L -167.9969940185547 -294.5039978027344 L -170.9969940185547 -294.5039978027344 L -170.9980010986328 -294.5039978027344 L -170.9980010986328 -294.60400390625 L -170.9980010986328 -300.50201416015625 L -171 -300.50201416015625 L -171 -302.5050048828125 L -171 -304.50201416015625 L -151 -304.50201416015625 L -151 -302.5050048828125 L -151 -301.50201416015625 L 98 -301.50201416015625 L 98 -302.5050048828125 L 98 -304.50201416015625 L 118 -304.50201416015625 L 118 -302.5050048828125 L 118 -300.50201416015625 L 117.99800109863281 -300.50201416015625 L 117.99800109863281 -294.60400390625 L 117.99800109863281 -294.5039978027344 L 117.99700164794922 -294.5039978027344 L 114.99800109863281 -294.5039978027344 L 114.99800109863281 -291.5039978027344 L 117.99700164794922 -291.5039978027344 L 117.99800109863281 -291.5039978027344 L 121 -291.5039978027344 L 121 -288.5039978027344 L 117.99800109863281 -288.5039978027344 L 117.99700164794922 -288.5039978027344 L 114.99800109863281 -288.5039978027344 L 114.99800109863281 -285.5039978027344 L 117.99700164794922 -285.5039978027344 L 117.99800109863281 -285.5039978027344 L 121 -285.5039978027344 L 121 -282.50299072265625 L 117.99800109863281 -282.50299072265625 L 117.99700164794922 -282.50299072265625 L 114.99800109863281 -282.50299072265625 L 114.99800109863281 -279.50299072265625 L 117.99700164794922 -279.50299072265625 L 117.99800109863281 -279.50299072265625 L 121 -279.50299072265625 L 121 -276.50299072265625 L 117.99800109863281 -276.50299072265625 L 117.99700164794922 -276.50299072265625 L 114.99800109863281 -276.50299072265625 L 114.99800109863281 -273.50299072265625 L 117.99700164794922 -273.50299072265625 L 117.99800109863281 -273.50299072265625 L 121 -273.50299072265625 L 121 -270.50299072265625 L 117.99800109863281 -270.50299072265625 L 117.99700164794922 -270.50299072265625 L 114.99800109863281 -270.50299072265625 L 114.99800109863281 -267.50299072265625 L 117.99700164794922 -267.50299072265625 L 117.99800109863281 -267.50299072265625 L 121 -267.50299072265625 L 121 -264.50201416015625 L 117.99800109863281 -264.50201416015625 L 117.99700164794922 -264.50201416015625 L 114.99800109863281 -264.50201416015625 L 114.99800109863281 -261.50201416015625 L 117.99700164794922 -261.50201416015625 L 117.99800109863281 -261.50201416015625 L 121 -261.50201416015625 L 121 -258.50201416015625 L 117.99800109863281 -258.50201416015625 L 117.99700164794922 -258.50201416015625 L 114.99800109863281 -258.50201416015625 L 114.99800109863281 -255.5019989013672 L 117.99700164794922 -255.5019989013672 L 117.99800109863281 -255.5019989013672 L 121 -255.5019989013672 L 121 -252.5019989013672 L 117.99800109863281 -252.5019989013672 L 117.99700164794922 -252.5019989013672 L 114.99800109863281 -252.5019989013672 L 114.99800109863281 -249.5019989013672 L 117.99700164794922 -249.5019989013672 L 117.99800109863281 -249.5019989013672 L 121 -249.5019989013672 L 121 -246.50100708007812 L 117.99800109863281 -246.50100708007812 L 117.99700164794922 -246.50100708007812 L 114.99800109863281 -246.50100708007812 L 114.99800109863281 -243.50100708007812 L 117.99700164794922 -243.50100708007812 L 117.99800109863281 -243.50100708007812 L 121 -243.50100708007812 L 121 -240.50100708007812 L 117.99800109863281 -240.50100708007812 L 117.99700164794922 -240.50100708007812 L 114.99800109863281 -240.50100708007812 L 114.99800109863281 -237.50100708007812 L 117.99700164794922 -237.50100708007812 L 117.99800109863281 -237.50100708007812 L 121 -237.50100708007812 L 121 -234.50100708007812 L 117.99800109863281 -234.50100708007812 L 117.99700164794922 -234.50100708007812 L 114.99800109863281 -234.50100708007812 L 114.99800109863281 -231.50100708007812 L 117.99700164794922 -231.50100708007812 L 117.99800109863281 -231.50100708007812 L 121 -231.50100708007812 L 121 -228.5 L 117.99800109863281 -228.5 L 117.99700164794922 -228.5 L 114.99800109863281 -228.5 L 114.99800109863281 -225.5 L 117.99700164794922 -225.5 L 117.99800109863281 -225.5 L 121 -225.5 L 121 -222.5 L 117.99800109863281 -222.5 L 117.99700164794922 -222.5 L 114.99800109863281 -222.5 L 114.99800109863281 -219.5 L 117.99700164794922 -219.5 L 117.99800109863281 -219.5 L 121 -219.5 L 121 -216.5 M -11.5 -291.5039978027344 L -11.5 -294.60400390625 L -41.5 -294.60400390625 L -41.5 -291.5039978027344 L -41.50299835205078 -291.5039978027344 L -41.50299835205078 -291.4989929199219 L -41.50299835205078 -288.4989929199219 L -11.498000144958496 -288.4989929199219 L -11.498000144958496 -291.4989929199219 L -11.498000144958496 -291.5039978027344 L -11.5 -291.5039978027344 M 31.000999450683594 -294.60400390625 L 31.000999450683594 -291.4989929199219 L 46.000999450683594 -291.4989929199219 L 46.000999450683594 -294.60400390625 L 31.000999450683594 -294.60400390625 M 16.000999450683594 -291.4989929199219 L 16.000999450683594 -294.60400390625 L 1.0010000467300415 -294.60400390625 L 1.0010000467300415 -291.4989929199219 L 16.000999450683594 -291.4989929199219 M 61.00199890136719 -294.60400390625 L 61.00199890136719 -291.4989929199219 L 76.00199890136719 -291.4989929199219 L 76.00199890136719 -294.60400390625 L 61.00199890136719 -294.60400390625 M -149.0019989013672 -294.60400390625 L -151 -294.60400390625 L -151.0019989013672 -294.60400390625 L -164.0019989013672 -294.60400390625 L -164.0019989013672 -294.5039978027344 L -164.0019989013672 -291.5039978027344 L -164.0019989013672 -291.4989929199219 L -151.0019989013672 -291.4989929199219 L -151 -291.4989929199219 L -149.0019989013672 -291.4989929199219 L -149.0019989013672 -294.60400390625 M 106.00199890136719 -291.4989929199219 L 106.00199890136719 -291.5039978027344 L 106.00199890136719 -294.5039978027344 L 106.00199890136719 -294.60400390625 L 98.00299835205078 -294.60400390625 L 91.00199890136719 -294.60400390625 L 91.00199890136719 -291.4989929199219 L 98.00299835205078 -291.4989929199219 L 106.00199890136719 -291.4989929199219 M -62.500999450683594 -291.4989929199219 L -62.500999450683594 -294.60400390625 L -74.0009994506836 -294.60400390625 L -74.0009994506836 -291.4989929199219 L -62.500999450683594 -291.4989929199219 M -134.0019989013672 -294.60400390625 L -134.0019989013672 -291.4989929199219 L -119.00199890136719 -291.4989929199219 L -119.00199890136719 -294.60400390625 L -134.0019989013672 -294.60400390625 M -104.0009994506836 -294.60400390625 L -104.0009994506836 -291.4989929199219 L -89.0009994506836 -291.4989929199219 L -89.0009994506836 -294.60400390625 L -104.0009994506836 -294.60400390625 z" fill="none" stroke="rgb(255,0,0)" stroke-width="0.001mm" />
</svg>