<?xml version="1.0" standalone="no"?>
<!DOCTYPE svg PUBLIC "-//W3C//DTD SVG 1.1//EN"
  "http://www.w3.org/Graphics/SVG/1.1/DTD/svg11.dtd">
<svg width="114mm" height="353mm" viewBox="216 -167 114 353" xmlns="http://www.w3.org/2000/svg" version="1.1">
	<title>svgOutput</title>
	<desc>made with tinkercad</desc>
<path d="M 227.0030059814453 58.00199890136719 L 228 58.00199890136719 L 287.00299072265625 58.00199890136719 L 287.00299072265625 54.99700164794922 L 228 54.99700164794922 L 227.0030059814453 54.99700164794922 L 227.0030059814453 34.00199890136719 L 228 34.00199890136719 L 287.00299072265625 34.00199890136719 L 287.00299072265625 30.996999740600586 L 228 30.996999740600586 L 227.0030059814453 30.996999740600586 L 227.0030059814453 10.001999855041504 L 228 10.001999855041504 L 287.00299072265625 10.001999855041504 L 287.00299072265625 6.997000217437744 L 228 6.997000217437744 L 227.0030059814453 6.997000217437744 L 227.0030059814453 -13.998000144958496 L 228 -13.998000144958496 L 287.00299072265625 -13.998000144958496 L 287.00299072265625 -17.003000259399414 L 230.0030059814453 -17.003000259399414 L 228 -17.003000259399414 L 227.0030059814453 -17.003000259399414 L 227.0030059814453 -19.99799919128418 L 228 -19.99799919128418 L 230.0030059814453 -19.99799919128418 L 230.0030059814453 -35.00299835205078 L 228 -35.00299835205078 L 227.0030059814453 -35.00299835205078 L 227.0030059814453 -37.99800109863281 L 228 -37.99800109863281 L 230.0030059814453 -37.99800109863281 L 287.00299072265625 -37.99800109863281 L 287.00299072265625 -41.00299835205078 L 228 -41.00299835205078 L 227.0030059814453 -41.00299835205078 L 227.0030059814453 -61.99800109863281 L 228 -61.99800109863281 L 287.00299072265625 -61.99800109863281 L 287.00299072265625 -65.00299835205078 L 228 -65.00299835205078 L 227.0030059814453 -65.00299835205078 L 227.0030059814453 -85.99800109863281 L 228 -85.99800109863281 L 287.00299072265625 -85.99800109863281 L 287.00299072265625 -89.00299835205078 L 228 -89.00299835205078 L 227.0030059814453 -89.00299835205078 L 227.0030059814453 -109.99800109863281 L 228 -109.99800109863281 L 287.00299072265625 -109.99800109863281 L 287.00299072265625 -113.00299835205078 L 228 -113.00299835205078 L 227.0030059814453 -113.00299835205078 L 227.0030059814453 -133.9980010986328 L 228 -133.9980010986328 L 287.00299072265625 -133.9980010986328 L 287.00299072265625 -137.0030059814453 L 228 -137.0030059814453 L 227.0030059814453 -137.0030059814453 L 227.0030059814453 -139 L 227.0030059814453 -140 L 227.0030059814453 -157 L 227.0030059814453 -163 L 217 -163 L 217 -166 L 322 -166 L 322 -163 L 319.0010070800781 -163 L 319.0010070800781 -162.0030059814453 L 318.99798583984375 -162.0030059814453 L 318.99798583984375 -157 L 318.99798583984375 -156.9980010986328 L 319.0010070800781 -156.9980010986328 L 319.00299072265625 -156.9980010986328 L 319.1029968261719 -156.9980010986328 L 322 -156.9980010986328 L 323.0010070800781 -156.9980010986328 L 325 -156.9980010986328 L 325 -157 L 326 -157 L 329 -157 L 329 -139 L 326 -139 L 326 -131 L 326 159 L 329 159 L 329 160 L 329 176 L 326 176 L 325 176 L 325 175.9980010986328 L 323.0010070800781 175.9980010986328 L 322 175.9980010986328 L 319.1029968261719 175.9980010986328 L 319.00299072265625 175.9980010986328 L 319.0010070800781 175.9980010986328 L 316.00299072265625 175.9980010986328 L 316.00201416015625 175.9980010986328 L 316.00201416015625 176 L 316.00201416015625 182 L 319.0010070800781 182 L 322 182 L 322 185 L 315 185 L 228 185 L 217 185 L 217 182 L 228 182 L 228.9980010986328 182 L 228.9980010986328 176 L 228.9980010986328 175.9980010986328 L 228 175.9980010986328 L 227.0030059814453 175.9980010986328 L 227.0030059814453 160 L 227.0030059814453 154.0030059814453 L 228 154.0030059814453 L 287.00299072265625 154.0030059814453 L 287.00299072265625 150.9980010986328 L 228 150.9980010986328 L 227.0030059814453 150.9980010986328 L 227.0030059814453 130.0030059814453 L 228 130.0030059814453 L 287.00299072265625 130.0030059814453 L 287.00299072265625 126.99800109863281 L 228 126.99800109863281 L 227.0030059814453 126.99800109863281 L 227.0030059814453 106.00199890136719 L 228 106.00199890136719 L 287.00299072265625 106.00199890136719 L 287.00299072265625 102.99700164794922 L 228 102.99700164794922 L 227.0030059814453 102.99700164794922 L 227.0030059814453 82.00199890136719 L 228 82.00199890136719 L 287.00299072265625 82.00199890136719 L 287.00299072265625 78.99700164794922 L 228 78.99700164794922 L 227.0030059814453 78.99700164794922 L 227.0030059814453 58.00199890136719 M 316.00201416015625 -163 L 315 -163 L 313.00201416015625 -163 L 313.00201416015625 -157 L 315 -157 L 315 -155.9969940185547 L 315.99798583984375 -155.9969940185547 L 316.00201416015625 -155.9969940185547 L 316.00299072265625 -155.9969940185547 L 316.00299072265625 -157 L 316.00299072265625 -163 L 316.00201416015625 -163 M 287.00299072265625 182 L 289.0010070800781 182 L 289.0010070800781 176 L 289.0010070800781 175.9980010986328 L 287.00299072265625 175.9980010986328 L 286.0010070800781 175.9980010986328 L 286.0010070800781 176 L 286.0010070800781 182 L 287.00299072265625 182 M 319.1029968261719 32 L 319.00299072265625 32 L 319.0010070800781 32 L 316.00299072265625 32 L 316.00201416015625 32 L 315.99798583984375 32 L 315.99798583984375 47.000999450683594 L 316.00201416015625 47.000999450683594 L 316.00299072265625 47.000999450683594 L 319.0010070800781 47.000999450683594 L 319.00299072265625 47.000999450683594 L 319.1029968261719 47.000999450683594 L 319.1029968261719 32 M 319.1029968261719 -1.5 L 319.00299072265625 -1.5 L 319.0010070800781 -1.5 L 316.00299072265625 -1.5 L 316.00201416015625 -1.5 L 315.99798583984375 -1.5 L 315.99798583984375 19.5 L 316.00201416015625 19.5 L 316.00299072265625 19.5 L 319.0010070800781 19.5 L 319.00299072265625 19.5 L 319.1029968261719 19.5 L 319.1029968261719 -1.5 M 319.1029968261719 -28.000999450683594 L 319.00299072265625 -28.000999450683594 L 319.0010070800781 -28.000999450683594 L 316.00299072265625 -28.000999450683594 L 316.00201416015625 -28.000999450683594 L 315.99798583984375 -28.000999450683594 L 315.99798583984375 -13 L 316.00201416015625 -13 L 316.00299072265625 -13 L 319.0010070800781 -13 L 319.00299072265625 -13 L 319.1029968261719 -13 L 319.1029968261719 -28.000999450683594 M 319.1029968261719 -58.000999450683594 L 319.00299072265625 -58.000999450683594 L 319.0010070800781 -58.000999450683594 L 316.00299072265625 -58.000999450683594 L 316.00201416015625 -58.000999450683594 L 315.99798583984375 -58.000999450683594 L 315.99798583984375 -43.000999450683594 L 316.00201416015625 -43.000999450683594 L 316.00299072265625 -43.000999450683594 L 319.0010070800781 -43.000999450683594 L 319.00299072265625 -43.000999450683594 L 319.1029968261719 -43.000999450683594 L 319.1029968261719 -58.000999450683594 M 319.1029968261719 -88.00199890136719 L 319.00299072265625 -88.00199890136719 L 319.0010070800781 -88.00199890136719 L 316.00299072265625 -88.00199890136719 L 316.00201416015625 -88.00199890136719 L 315.99798583984375 -88.00199890136719 L 315.99798583984375 -73.0009994506836 L 316.00201416015625 -73.0009994506836 L 316.00299072265625 -73.0009994506836 L 319.0010070800781 -73.0009994506836 L 319.00299072265625 -73.0009994506836 L 319.1029968261719 -73.0009994506836 L 319.1029968261719 -88.00199890136719 M 319.1029968261719 -118.00199890136719 L 319.00299072265625 -118.00199890136719 L 319.0010070800781 -118.00199890136719 L 316.00299072265625 -118.00199890136719 L 316.00201416015625 -118.00199890136719 L 315.99798583984375 -118.00199890136719 L 315.99798583984375 -103.00199890136719 L 316.00201416015625 -103.00199890136719 L 316.00299072265625 -103.00199890136719 L 319.0010070800781 -103.00199890136719 L 319.00299072265625 -103.00199890136719 L 319.1029968261719 -103.00199890136719 L 319.1029968261719 -118.00199890136719 M 319.00299072265625 137.0019989013672 L 319.1029968261719 137.0019989013672 L 319.1029968261719 122.00199890136719 L 319.00299072265625 122.00199890136719 L 319.0010070800781 122.00199890136719 L 316.00299072265625 122.00199890136719 L 316.00201416015625 122.00199890136719 L 315.99798583984375 122.00199890136719 L 315.99798583984375 137.0019989013672 L 316.00201416015625 137.0019989013672 L 316.00299072265625 137.0019989013672 L 319.0010070800781 137.0019989013672 L 319.00299072265625 137.0019989013672 M 319.00299072265625 107.00199890136719 L 319.1029968261719 107.00199890136719 L 319.1029968261719 92.0009994506836 L 319.00299072265625 92.0009994506836 L 319.0010070800781 92.0009994506836 L 316.00299072265625 92.0009994506836 L 316.00201416015625 92.0009994506836 L 315.99798583984375 92.0009994506836 L 315.99798583984375 107.00199890136719 L 316.00201416015625 107.00199890136719 L 316.00299072265625 107.00199890136719 L 319.0010070800781 107.00199890136719 L 319.00299072265625 107.00199890136719 M 319.0010070800781 62.000999450683594 L 316.00299072265625 62.000999450683594 L 316.00201416015625 62.000999450683594 L 315.99798583984375 62.000999450683594 L 315.99798583984375 77.0009994506836 L 316.00201416015625 77.0009994506836 L 316.00299072265625 77.0009994506836 L 319.0010070800781 77.0009994506836 L 319.00299072265625 77.0009994506836 L 319.1029968261719 77.0009994506836 L 319.1029968261719 62.000999450683594 L 319.00299072265625 62.000999450683594 L 319.0010070800781 62.000999450683594 M 304.00201416015625 175.9980010986328 L 304.00201416015625 176 L 304.00201416015625 182 L 307.00201416015625 182 L 307.00201416015625 176 L 307.00201416015625 175.9980010986328 L 304.00201416015625 175.9980010986328 M 313.00201416015625 175.9980010986328 L 310.00201416015625 175.9980010986328 L 310.00201416015625 176 L 310.00201416015625 182 L 313.00201416015625 182 L 313.00201416015625 176 L 313.00201416015625 175.9980010986328 M 319.0010070800781 152.0019989013672 L 316.00299072265625 152.0019989013672 L 316.00201416015625 152.0019989013672 L 315.99798583984375 152.0019989013672 L 315.99798583984375 160 L 315.99798583984375 167.0030059814453 L 316.00201416015625 167.0030059814453 L 316.00299072265625 167.0030059814453 L 319.0010070800781 167.0030059814453 L 319.00299072265625 167.0030059814453 L 319.1029968261719 167.0030059814453 L 319.1029968261719 160 L 319.1029968261719 152.0019989013672 L 319.00299072265625 152.0019989013672 L 319.0010070800781 152.0019989013672 M 319.1029968261719 -139 L 319.1029968261719 -140 L 319.1029968261719 -148.0030059814453 L 319.00299072265625 -148.0030059814453 L 319.0010070800781 -148.0030059814453 L 318.99798583984375 -148.0030059814453 L 316.00299072265625 -148.0030059814453 L 316.00201416015625 -148.0030059814453 L 315.99798583984375 -148.0030059814453 L 315.99798583984375 -140 L 315.99798583984375 -139 L 315.99798583984375 -133.0019989013672 L 316.00201416015625 -133.0019989013672 L 316.00299072265625 -133.0019989013672 L 319.0010070800781 -133.0019989013672 L 319.00299072265625 -133.0019989013672 L 319.1029968261719 -133.0019989013672 L 319.1029968261719 -139 M 283.0010070800781 175.9980010986328 L 280 175.9980010986328 L 280 176 L 280 182 L 283.0010070800781 182 L 283.0010070800781 176 L 283.0010070800781 175.9980010986328 M 298.0010070800781 175.9980010986328 L 298.0010070800781 176 L 298.0010070800781 182 L 301.00201416015625 182 L 301.00201416015625 176 L 301.00201416015625 175.9980010986328 L 298.0010070800781 175.9980010986328 M 286.0010070800781 -157 L 286.0010070800781 -163 L 283.0010070800781 -163 L 283.0010070800781 -157 L 286.0010070800781 -157 M 295.0010070800781 175.9980010986328 L 292.0010070800781 175.9980010986328 L 292.0010070800781 176 L 292.0010070800781 182 L 295.0010070800781 182 L 295.0010070800781 176 L 295.0010070800781 175.9980010986328 M 277 182 L 277 176 L 277 175.9980010986328 L 274 175.9980010986328 L 274 176 L 274 182 L 277 182 M 274 -157 L 274 -163 L 271 -163 L 271 -157 L 274 -157 M 277 -163 L 277 -157 L 280 -157 L 280 -163 L 277 -163 M 268 -157 L 268 -163 L 265 -163 L 265 -157 L 268 -157 M 271 175.9980010986328 L 268 175.9980010986328 L 268 176 L 268 182 L 271 182 L 271 176 L 271 175.9980010986328 M 265 182 L 265 176 L 265 175.9980010986328 L 261.9989929199219 175.9980010986328 L 261.9989929199219 176 L 261.9989929199219 182 L 265 182 M 255.99899291992188 -157 L 255.99899291992188 -163 L 252.99899291992188 -163 L 252.99899291992188 -157 L 255.99899291992188 -157 M 258.9989929199219 -163 L 258.9989929199219 -157 L 261.9989929199219 -157 L 261.9989929199219 -163 L 258.9989929199219 -163 M 249.99899291992188 -157 L 249.99899291992188 -163 L 246.99899291992188 -163 L 246.99899291992188 -157 L 249.99899291992188 -157 M 258.9989929199219 175.9980010986328 L 255.99899291992188 175.9980010986328 L 255.99899291992188 176 L 255.99899291992188 182 L 258.9989929199219 182 L 258.9989929199219 176 L 258.9989929199219 175.9980010986328 M 252.99899291992188 182 L 252.99899291992188 176 L 252.99899291992188 175.9980010986328 L 249.99899291992188 175.9980010986328 L 249.99899291992188 176 L 249.99899291992188 182 L 252.99899291992188 182 M 237.9980010986328 -157 L 237.9980010986328 -163 L 234.9980010986328 -163 L 234.9980010986328 -157 L 237.9980010986328 -157 M 240.9980010986328 -163 L 240.9980010986328 -157 L 243.9980010986328 -157 L 243.9980010986328 -163 L 240.9980010986328 -163 M 231.9980010986328 -157 L 231.9980010986328 -163 L 228.9969940185547 -163 L 228.9969940185547 -157 L 231.9980010986328 -157 M 246.99899291992188 175.9980010986328 L 243.9980010986328 175.9980010986328 L 243.9980010986328 176 L 243.9980010986328 182 L 246.99899291992188 182 L 246.99899291992188 176 L 246.99899291992188 175.9980010986328 M 240.9980010986328 182 L 240.9980010986328 176 L 240.9980010986328 175.9980010986328 L 237.9980010986328 175.9980010986328 L 237.9980010986328 176 L 237.9980010986328 182 L 240.9980010986328 182 M 292.0010070800781 -157 L 292.0010070800781 -163 L 289.0010070800781 -163 L 289.0010070800781 -157 L 292.0010070800781 -157 M 301.00201416015625 -163 L 301.00201416015625 -157 L 304.00201416015625 -157 L 304.00201416015625 -163 L 301.00201416015625 -163 M 295.0010070800781 -163 L 295.0010070800781 -157 L 298.0010070800781 -157 L 298.0010070800781 -163 L 295.0010070800781 -163 M 234.9980010986328 182 L 234.9980010986328 176 L 234.9980010986328 175.9980010986328 L 231.9980010986328 175.9980010986328 L 231.9980010986328 176 L 231.9980010986328 182 L 234.9980010986328 182 M 307.00201416015625 -163 L 307.00201416015625 -157 L 310.00201416015625 -157 L 310.00201416015625 -163 L 307.00201416015625 -163 z" fill="none" stroke="rgb(255,0,0)" stroke-width="0.001mm" />
</svg>