<?xml version="1.0" standalone="no"?>
<!DOCTYPE svg PUBLIC "-//W3C//DTD SVG 1.1//EN"
  "http://www.w3.org/Graphics/SVG/1.1/DTD/svg11.dtd">
<svg width="347mm" height="297mm" viewBox="139 -483 347 297" xmlns="http://www.w3.org/2000/svg" version="1.1">
	<title>svgOutput</title>
	<desc>made with tinkercad</desc>
<path d="M 485 -196.9980010986328 L 478.99798583984375 -196.9980010986328 L 478.99798583984375 -193.0030059814453 L 478.89801025390625 -193.0030059814453 L 470.00201416015625 -193.0030059814453 L 470.00201416015625 -187 L 455.00201416015625 -187 L 455.00201416015625 -193.0030059814453 L 440.00201416015625 -193.0030059814453 L 440.00201416015625 -187 L 425.00201416015625 -187 L 425.00201416015625 -193.0030059814453 L 410.0010070800781 -193.0030059814453 L 410.0010070800781 -187 L 395.0010070800781 -187 L 395.0010070800781 -193.0030059814453 L 380.0010070800781 -193.0030059814453 L 380.0010070800781 -187 L 365.0010070800781 -187 L 365.0010070800781 -193.0030059814453 L 350.0010070800781 -193.0030059814453 L 350.0010070800781 -187 L 335 -187 L 335 -193.0030059814453 L 322.5 -193.0030059814453 L 322.5 -190.0030059814453 L 301.5 -190.0030059814453 L 301.5 -193.0030059814453 L 290 -193.0030059814453 L 290 -187 L 274.9989929199219 -187 L 274.9989929199219 -193.0030059814453 L 259.9989929199219 -193.0030059814453 L 259.9989929199219 -187 L 244.99899291992188 -187 L 244.99899291992188 -193.0030059814453 L 229.99899291992188 -193.0030059814453 L 229.99899291992188 -187 L 214.99899291992188 -187 L 214.99899291992188 -193.0030059814453 L 199.9980010986328 -193.0030059814453 L 199.9980010986328 -187 L 184.9980010986328 -187 L 184.9980010986328 -193.0030059814453 L 169.9980010986328 -193.0030059814453 L 169.9980010986328 -187 L 154.9980010986328 -187 L 154.9980010986328 -193.0030059814453 L 146.0030059814453 -193.0030059814453 L 146.0030059814453 -196.9980010986328 L 140 -196.9980010986328 L 140 -211.9980010986328 L 146.0030059814453 -211.9980010986328 L 146.0030059814453 -226.9980010986328 L 140 -226.9980010986328 L 140 -241.99899291992188 L 146.0030059814453 -241.99899291992188 L 146.0030059814453 -256.9989929199219 L 140 -256.9989929199219 L 140 -271.9989929199219 L 146.0030059814453 -271.9989929199219 L 146.0030059814453 -286.9989929199219 L 140 -286.9989929199219 L 140 -298.4989929199219 L 146.0030059814453 -298.4989929199219 L 146.0030059814453 -319.5 L 146.0030059814453 -349.5 L 146.0030059814453 -362.0010070800781 L 140 -362.0010070800781 L 140 -377.0010070800781 L 146.0030059814453 -377.0010070800781 L 146.0030059814453 -392.0010070800781 L 140 -392.0010070800781 L 140 -407.0010070800781 L 146.0030059814453 -407.0010070800781 L 146.0030059814453 -422.00201416015625 L 140 -422.00201416015625 L 140 -437.00201416015625 L 146.0030059814453 -437.00201416015625 L 146.0030059814453 -452.00201416015625 L 140 -452.00201416015625 L 140 -467.00201416015625 L 146.0030059814453 -467.00201416015625 L 146.0030059814453 -475.99798583984375 L 154.9980010986328 -475.99798583984375 L 154.9980010986328 -482 L 169.9980010986328 -482 L 169.9980010986328 -475.99798583984375 L 184.9980010986328 -475.99798583984375 L 184.9980010986328 -482 L 199.9980010986328 -482 L 199.9980010986328 -475.99798583984375 L 214.99899291992188 -475.99798583984375 L 214.99899291992188 -482 L 229.99899291992188 -482 L 229.99899291992188 -475.99798583984375 L 244.99899291992188 -475.99798583984375 L 244.99899291992188 -482 L 259.9989929199219 -482 L 259.9989929199219 -475.99798583984375 L 274.9989929199219 -475.99798583984375 L 274.9989929199219 -482 L 290 -482 L 290 -475.99798583984375 L 301.5 -475.99798583984375 L 301.5 -478.99798583984375 L 322.5 -478.99798583984375 L 322.5 -475.99798583984375 L 335 -475.99798583984375 L 335 -482 L 350.0010070800781 -482 L 350.0010070800781 -475.99798583984375 L 365.0010070800781 -475.99798583984375 L 365.0010070800781 -482 L 380.0010070800781 -482 L 380.0010070800781 -475.99798583984375 L 395.0010070800781 -475.99798583984375 L 395.0010070800781 -482 L 410.0010070800781 -482 L 410.0010070800781 -475.99798583984375 L 425.00201416015625 -475.99798583984375 L 425.00201416015625 -482 L 440.00201416015625 -482 L 440.00201416015625 -475.99798583984375 L 455.00201416015625 -475.99798583984375 L 455.00201416015625 -482 L 470.00201416015625 -482 L 470.00201416015625 -475.99798583984375 L 478.89801025390625 -475.99798583984375 L 478.99798583984375 -475.99798583984375 L 478.99798583984375 -467.00201416015625 L 485 -467.00201416015625 L 485 -452.00201416015625 L 478.99798583984375 -452.00201416015625 L 478.99798583984375 -437.00201416015625 L 485 -437.00201416015625 L 485 -422.00201416015625 L 478.99798583984375 -422.00201416015625 L 478.99798583984375 -407.0010070800781 L 485 -407.0010070800781 L 485 -392.0010070800781 L 478.99798583984375 -392.0010070800781 L 478.99798583984375 -377.0010070800781 L 485 -377.0010070800781 L 485 -362.0010070800781 L 478.99798583984375 -362.0010070800781 L 478.99798583984375 -345.00201416015625 L 478.89801025390625 -345.00201416015625 L 478.89801025390625 -323.99700927734375 L 478.99798583984375 -323.99700927734375 L 478.99798583984375 -298.4989929199219 L 485 -298.4989929199219 L 485 -286.9989929199219 L 478.99798583984375 -286.9989929199219 L 478.99798583984375 -271.9989929199219 L 485 -271.9989929199219 L 485 -256.9989929199219 L 478.99798583984375 -256.9989929199219 L 478.99798583984375 -241.99899291992188 L 485 -241.99899291992188 L 485 -226.9980010986328 L 478.99798583984375 -226.9980010986328 L 478.99798583984375 -211.9980010986328 L 485 -211.9980010986328 L 485 -196.9980010986328 z" fill="none" stroke="rgb(255,0,0)" stroke-width="0.001mm" />
</svg>