<?xml version="1.0" standalone="no"?>
<!DOCTYPE svg PUBLIC "-//W3C//DTD SVG 1.1//EN"
  "http://www.w3.org/Graphics/SVG/1.1/DTD/svg11.dtd">
<svg width="297mm" height="106.99700927734375mm" viewBox="-120 321.5 297 106.99700927734375" xmlns="http://www.w3.org/2000/svg" version="1.1">
	<title>svgOutput</title>
	<desc>made with tinkercad</desc>
<path d="M 176 427.49700927734375 L -119 427.49700927734375 L -119 424.49700927734375 L -119 421.5 L -115.99800109863281 421.5 L -112.99700164794922 421.5 L -112.99700164794922 421.4949951171875 L -112.99700164794922 418.4989929199219 L -115.99800109863281 418.4989929199219 L -119 418.4989929199219 L -119 415.4989929199219 L -115.99800109863281 415.4989929199219 L -112.99700164794922 415.4989929199219 L -112.99700164794922 412.4989929199219 L -115.99800109863281 412.4989929199219 L -119 412.4989929199219 L -119 409.4989929199219 L -115.99800109863281 409.4989929199219 L -112.99700164794922 409.4989929199219 L -112.99700164794922 406.4989929199219 L -115.99800109863281 406.4989929199219 L -119 406.4989929199219 L -119 403.4989929199219 L -115.99800109863281 403.4989929199219 L -115.99800109863281 403.49798583984375 L -112.99700164794922 403.49798583984375 L -112.99700164794922 400.49798583984375 L -115.99800109863281 400.49798583984375 L -119 400.49798583984375 L -119 397.49798583984375 L -115.99800109863281 397.49798583984375 L -112.99700164794922 397.49798583984375 L -112.99700164794922 394.49798583984375 L -115.99800109863281 394.49798583984375 L -119 394.49798583984375 L -119 391.49798583984375 L -115.99800109863281 391.49798583984375 L -112.99700164794922 391.49798583984375 L -112.99700164794922 388.49798583984375 L -115.99800109863281 388.49798583984375 L -119 388.49798583984375 L -119 385.49798583984375 L -115.99800109863281 385.49798583984375 L -115.99800109863281 385.49700927734375 L -112.99700164794922 385.49700927734375 L -112.99700164794922 382.49700927734375 L -115.99800109863281 382.49700927734375 L -116.00199890136719 382.49700927734375 L -116.00299835205078 382.49700927734375 L -116.00299835205078 382.49798583984375 L -119 382.49798583984375 L -119 379.49700927734375 L -116.00299835205078 379.49700927734375 L -116.00199890136719 379.49700927734375 L -115.99800109863281 379.49700927734375 L -112.99700164794922 379.49700927734375 L -112.99700164794922 376.49700927734375 L -115.99800109863281 376.49700927734375 L -119 376.49700927734375 L -119 373.49700927734375 L -115.99800109863281 373.49700927734375 L -112.99700164794922 373.49700927734375 L -112.99700164794922 370.49700927734375 L -115.99800109863281 370.49700927734375 L -119 370.49700927734375 L -119 367.49700927734375 L -115.99800109863281 367.49700927734375 L -115.99800109863281 367.4960021972656 L -112.99700164794922 367.4960021972656 L -112.99700164794922 364.4960021972656 L -115.99800109863281 364.4960021972656 L -116.00199890136719 364.4960021972656 L -116.00299835205078 364.4960021972656 L -116.00299835205078 364.49700927734375 L -119 364.49700927734375 L -119 361.49700927734375 L -116.00299835205078 361.49700927734375 L -116.00199890136719 361.49700927734375 L -115.99800109863281 361.49700927734375 L -115.99800109863281 361.4960021972656 L -112.99700164794922 361.4960021972656 L -112.99700164794922 358.4960021972656 L -115.99800109863281 358.4960021972656 L -119 358.4960021972656 L -119 355.4960021972656 L -115.99800109863281 355.4960021972656 L -112.99700164794922 355.4960021972656 L -112.99700164794922 352.4960021972656 L -115.99800109863281 352.4960021972656 L -119 352.4960021972656 L -119 349.4960021972656 L -115.99800109863281 349.4960021972656 L -115.99800109863281 349.4949951171875 L -112.99700164794922 349.4949951171875 L -112.99700164794922 346.4949951171875 L -115.99800109863281 346.4949951171875 L -116.00199890136719 346.4949951171875 L -116.00299835205078 346.4949951171875 L -116.00299835205078 346.4960021972656 L -119 346.4960021972656 L -119 343.4960021972656 L -116.00299835205078 343.4960021972656 L -116.00199890136719 343.4960021972656 L -115.99800109863281 343.4960021972656 L -115.99800109863281 343.4949951171875 L -112.99700164794922 343.4949951171875 L -112.99700164794922 340.4949951171875 L -115.99800109863281 340.4949951171875 L -119 340.4949951171875 L -119 337.4949951171875 L -115.99800109863281 337.4949951171875 L -112.99700164794922 337.4949951171875 L -112.99700164794922 334.4949951171875 L -115.99800109863281 334.4949951171875 L -119 334.4949951171875 L -119 331.4949951171875 L -115.99800109863281 331.4949951171875 L -115.99800109863281 328.4949951171875 L -119 328.4949951171875 L -119 325.4949951171875 L -115.99800109863281 325.4949951171875 L -115.99800109863281 322.5 L -112.99700164794922 322.5 L 13.498000144958496 322.5 L 43.50299835205078 322.5 L 47.38800048828125 322.5 L 47.12300109863281 322.7650146484375 L 53.99800109863281 329.6400146484375 L 53.99800109863281 335.5 L 69.00299835205078 335.5 L 69.00299835205078 334.4949951171875 L 69.00299835205078 331.4949951171875 L 69.00299835205078 329.1029968261719 L 69.61100006103516 328.4949951171875 L 72.61100006103516 325.4949951171875 L 75.60600280761719 322.5 L 173.04800415039062 322.5 L 173.04800415039062 325.4949951171875 L 176 325.4949951171875 L 176 328.4949951171875 L 173.04800415039062 328.4949951171875 L 173.04800415039062 331.4949951171875 L 176 331.4949951171875 L 176 334.4949951171875 L 173.04800415039062 334.4949951171875 L 170.04800415039062 334.4949951171875 L 170.04800415039062 335.5 L 170.04800415039062 337.4949951171875 L 173.04800415039062 337.4949951171875 L 176 337.4949951171875 L 176 340.4949951171875 L 173.04800415039062 340.4949951171875 L 170.04800415039062 340.4949951171875 L 170.04800415039062 343.4949951171875 L 173.04800415039062 343.4949951171875 L 173.04800415039062 343.4960021972656 L 173.05299377441406 343.4960021972656 L 176 343.4960021972656 L 176 346.4960021972656 L 173.05299377441406 346.4960021972656 L 173.05299377441406 346.4949951171875 L 170.04800415039062 346.4949951171875 L 170.04800415039062 346.4960021972656 L 170.04800415039062 349.4949951171875 L 173.04800415039062 349.4949951171875 L 173.04800415039062 349.4960021972656 L 176 349.4960021972656 L 176 352.4960021972656 L 173.04800415039062 352.4960021972656 L 170.04800415039062 352.4960021972656 L 170.04800415039062 355.4960021972656 L 173.04800415039062 355.4960021972656 L 176 355.4960021972656 L 176 358.4960021972656 L 173.04800415039062 358.4960021972656 L 170.04800415039062 358.4960021972656 L 170.04800415039062 361.4960021972656 L 173.04800415039062 361.4960021972656 L 173.04800415039062 361.49700927734375 L 173.05299377441406 361.49700927734375 L 176 361.49700927734375 L 176 364.49700927734375 L 173.05299377441406 364.49700927734375 L 173.05299377441406 364.4960021972656 L 170.04800415039062 364.4960021972656 L 170.04800415039062 364.49700927734375 L 170.04800415039062 367.4960021972656 L 173.04800415039062 367.4960021972656 L 173.04800415039062 367.49700927734375 L 176 367.49700927734375 L 176 370.49700927734375 L 173.04800415039062 370.49700927734375 L 170.04800415039062 370.49700927734375 L 170.04800415039062 373.49700927734375 L 173.04800415039062 373.49700927734375 L 176 373.49700927734375 L 176 376.49700927734375 L 173.04800415039062 376.49700927734375 L 170.04800415039062 376.49700927734375 L 170.04800415039062 379.49700927734375 L 173.04800415039062 379.49700927734375 L 173.05299377441406 379.49700927734375 L 176 379.49700927734375 L 176 382.49798583984375 L 173.05299377441406 382.49798583984375 L 173.05299377441406 382.49700927734375 L 170.04800415039062 382.49700927734375 L 170.04800415039062 382.49798583984375 L 170.04800415039062 385.49700927734375 L 173.04800415039062 385.49700927734375 L 173.04800415039062 385.49798583984375 L 176 385.49798583984375 L 176 388.49798583984375 L 173.04800415039062 388.49798583984375 L 170.04800415039062 388.49798583984375 L 170.04800415039062 391.49798583984375 L 173.04800415039062 391.49798583984375 L 176 391.49798583984375 L 176 394.49798583984375 L 173.04800415039062 394.49798583984375 L 170.04800415039062 394.49798583984375 L 170.04800415039062 397.49798583984375 L 173.04800415039062 397.49798583984375 L 176 397.49798583984375 L 176 400.49798583984375 L 173.04800415039062 400.49798583984375 L 170.04800415039062 400.49798583984375 L 170.04800415039062 403.49798583984375 L 173.04800415039062 403.49798583984375 L 173.04800415039062 403.4989929199219 L 176 403.4989929199219 L 176 406.4989929199219 L 173.04800415039062 406.4989929199219 L 170.04800415039062 406.4989929199219 L 170.04800415039062 409.4989929199219 L 173.04800415039062 409.4989929199219 L 176 409.4989929199219 L 176 412.4989929199219 L 173.04800415039062 412.4989929199219 L 170.04800415039062 412.4989929199219 L 170.04800415039062 415.4989929199219 L 173.04800415039062 415.4989929199219 L 176 415.4989929199219 L 176 418.4989929199219 L 173.04800415039062 418.4989929199219 L 170.04800415039062 418.4989929199219 L 170.04800415039062 421.4949951171875 L 170.04800415039062 421.5 L 173.04800415039062 421.5 L 176 421.5 L 176 424.49700927734375 L 176 427.49700927734375 M 18.49799919128418 424.49700927734375 L 38.50299835205078 424.49700927734375 L 39.00299835205078 424.49700927734375 L 39.00299835205078 421.5 L 39.00299835205078 418.4949951171875 L 39.00299835205078 417.4949951171875 L 38.50299835205078 417.4949951171875 L 18.49799919128418 417.4949951171875 L 17.99799919128418 417.4949951171875 L 17.99799919128418 418.4949951171875 L 17.99799919128418 421.5 L 17.99799919128418 424.49700927734375 L 18.49799919128418 424.49700927734375 M 38.5989990234375 329.50299072265625 L 38.5989990234375 326.49798583984375 L 18.500999450683594 326.49798583984375 L 18.500999450683594 329.50299072265625 L 38.50299835205078 329.50299072265625 L 38.5989990234375 329.50299072265625 M -109.00199890136719 421.4949951171875 L -109.00199890136719 424.49700927734375 L -94.00199890136719 424.49700927734375 L -94.00199890136719 421.4949951171875 L -109.00199890136719 421.4949951171875 M 56.000999450683594 421.4949951171875 L 56.000999450683594 421.5 L 56.000999450683594 424.49700927734375 L 71.0009994506836 424.49700927734375 L 71.0009994506836 421.5 L 71.0009994506836 421.4949951171875 L 56.000999450683594 421.4949951171875 M -19.000999450683594 421.4949951171875 L -19.000999450683594 424.49700927734375 L -7.500999927520752 424.49700927734375 L -7.500999927520752 421.4949951171875 L -19.000999450683594 421.4949951171875 M -64.00199890136719 424.49700927734375 L -64.00199890136719 421.4949951171875 L -79.00199890136719 421.4949951171875 L -79.00199890136719 424.49700927734375 L -64.00199890136719 424.49700927734375 M 86.0009994506836 421.5 L 86.0009994506836 424.49700927734375 L 101.0009994506836 424.49700927734375 L 101.0009994506836 421.5 L 101.0009994506836 421.4949951171875 L 86.0009994506836 421.4949951171875 L 86.0009994506836 421.5 M 146.0019989013672 421.4949951171875 L 146.0019989013672 421.5 L 146.0019989013672 424.49700927734375 L 161.0019989013672 424.49700927734375 L 161.0019989013672 421.5 L 161.0019989013672 421.4949951171875 L 146.0019989013672 421.4949951171875 M 116.00199890136719 421.4949951171875 L 116.00199890136719 421.5 L 116.00199890136719 424.49700927734375 L 131.0019989013672 424.49700927734375 L 131.0019989013672 421.5 L 131.0019989013672 421.4949951171875 L 116.00199890136719 421.4949951171875 M -34.000999450683594 424.49700927734375 L -34.000999450683594 421.4949951171875 L -49.000999450683594 421.4949951171875 L -49.000999450683594 424.49700927734375 L -34.000999450683594 424.49700927734375 z" fill="none" stroke="rgb(255,0,0)" stroke-width="0.001mm" />
</svg>