<?xml version="1.0" standalone="no"?>
<!DOCTYPE svg PUBLIC "-//W3C//DTD SVG 1.1//EN"
  "http://www.w3.org/Graphics/SVG/1.1/DTD/svg11.dtd">
<svg width="114mm" height="353mm" viewBox="-252 -161 114 353" xmlns="http://www.w3.org/2000/svg" version="1.1">
	<title>svgOutput</title>
	<desc>made with tinkercad</desc>
<path d="M -149.0030059814453 -131.0030059814453 L -209.0030059814453 -131.0030059814453 L -209.0030059814453 -127.99800109863281 L -149.0030059814453 -127.99800109863281 L -149.0030059814453 -107.00299835205078 L -209.0030059814453 -107.00299835205078 L -209.0030059814453 -103.99800109863281 L -149.0030059814453 -103.99800109863281 L -149.0030059814453 -83.00299835205078 L -209.0030059814453 -83.00299835205078 L -209.0030059814453 -79.99800109863281 L -149.0030059814453 -79.99800109863281 L -149.0030059814453 -59.00299835205078 L -209.0030059814453 -59.00299835205078 L -209.0030059814453 -55.99800109863281 L -149.0030059814453 -55.99800109863281 L -149.0030059814453 -35.00299835205078 L -209.0030059814453 -35.00299835205078 L -209.0030059814453 -31.99799919128418 L -152.0030059814453 -31.99799919128418 L -149.0030059814453 -31.99799919128418 L -149.0030059814453 -29.003000259399414 L -152.0030059814453 -29.003000259399414 L -152.0030059814453 -13.998000144958496 L -149.0030059814453 -13.998000144958496 L -149.0030059814453 -11.003000259399414 L -152.0030059814453 -11.003000259399414 L -209.0030059814453 -11.003000259399414 L -209.0030059814453 -7.998000144958496 L -149.0030059814453 -7.998000144958496 L -149.0030059814453 12.996999740600586 L -209.0030059814453 12.996999740600586 L -209.0030059814453 16.00200080871582 L -149.0030059814453 16.00200080871582 L -149.0030059814453 36.99700164794922 L -209.0030059814453 36.99700164794922 L -209.0030059814453 40.00199890136719 L -149.0030059814453 40.00199890136719 L -149.0030059814453 60.99700164794922 L -209.0030059814453 60.99700164794922 L -209.0030059814453 64.00199890136719 L -149.0030059814453 64.00199890136719 L -149.0030059814453 84.99700164794922 L -209.0030059814453 84.99700164794922 L -209.0030059814453 88.00199890136719 L -149.0030059814453 88.00199890136719 L -149.0030059814453 108.99700164794922 L -209.0030059814453 108.99700164794922 L -209.0030059814453 112.00199890136719 L -149.0030059814453 112.00199890136719 L -149.0030059814453 132.9980010986328 L -209.0030059814453 132.9980010986328 L -209.0030059814453 136.0030059814453 L -149.0030059814453 136.0030059814453 L -149.0030059814453 156.9980010986328 L -209.0030059814453 156.9980010986328 L -209.0030059814453 160.0030059814453 L -149.0030059814453 160.0030059814453 L -149.0030059814453 165 L -149.0030059814453 166 L -149.0030059814453 181.9969940185547 L -150.9980010986328 181.9969940185547 L -150.9980010986328 182 L -150.9980010986328 188 L -149.0030059814453 188 L -139 188 L -139 191 L -244 191 L -244 188 L -241.00100708007812 188 L -240.9980010986328 188 L -238.0030059814453 188 L -238.0019989013672 188 L -238.0019989013672 184.4980010986328 L -238.0030059814453 184.4980010986328 L -240.9980010986328 184.4980010986328 L -240.9980010986328 182 L -240.9980010986328 181.9980010986328 L -241.00100708007812 181.9980010986328 L -241.0030059814453 181.9980010986328 L -241.10299682617188 181.9980010986328 L -244 181.9980010986328 L -245 181.9980010986328 L -245.00100708007812 181.9980010986328 L -247 181.9980010986328 L -247 182 L -248 182 L -251 182 L -251 165 L -248 165 L -248 -128 L -248 -133 L -251 -133 L -251 -134 L -251 -151 L -248 -151 L -247 -151 L -247 -150.9969940185547 L -245.00100708007812 -150.9969940185547 L -245 -150.9969940185547 L -244 -150.9969940185547 L -241.10299682617188 -150.9969940185547 L -241.0030059814453 -150.9969940185547 L -241.00100708007812 -150.9969940185547 L -240.9980010986328 -150.9969940185547 L -240.9980010986328 -151 L -240.9980010986328 -155.0030059814453 L -241.00100708007812 -155.0030059814453 L -241.00100708007812 -157 L -244 -157 L -244 -160 L -139 -160 L -139 -157 L -149.0030059814453 -157 L -149.0030059814453 -151 L -149.0030059814453 -134 L -149.0030059814453 -131.0030059814453 M -205.00100708007812 184.4980010986328 L -205.00100708007812 188 L -202 188 L -202 184.4980010986328 L -202.00100708007812 184.4980010986328 L -202.00100708007812 182 L -202.00100708007812 181.9969940185547 L -205.00100708007812 181.9969940185547 L -205.00100708007812 182 L -205.00100708007812 184.4980010986328 M -184 184.4980010986328 L -184 182 L -184 181.9969940185547 L -187 181.9969940185547 L -187 182 L -187 184.4980010986328 L -187 188 L -183.99899291992188 188 L -183.99899291992188 184.4980010986328 L -184 184.4980010986328 M -235.0019989013672 186.0030059814453 L -235.0019989013672 188 L -232.0019989013672 188 L -232.0019989013672 182 L -232.0019989013672 181.9969940185547 L -235.0019989013672 181.9969940185547 L -235.0030059814453 181.9969940185547 L -235.0030059814453 182 L -235.0030059814453 186.0030059814453 L -235.0019989013672 186.0030059814453 M -223.0019989013672 184.4980010986328 L -223.0019989013672 188 L -220.00100708007812 188 L -220.00100708007812 184.4980010986328 L -220.0019989013672 184.4980010986328 L -220.0019989013672 182 L -220.0019989013672 181.9969940185547 L -223.0019989013672 181.9969940185547 L -223.0019989013672 182 L -223.0019989013672 184.4980010986328 M -209.0030059814453 188 L -208.00100708007812 188 L -208.00100708007812 182 L -208.00100708007812 181.9969940185547 L -209.0030059814453 181.9969940185547 L -211.00100708007812 181.9969940185547 L -211.00100708007812 182 L -211.00100708007812 188 L -209.0030059814453 188 M -241.0030059814453 53.000999450683594 L -241.00100708007812 53.000999450683594 L -240.9980010986328 53.000999450683594 L -238.0030059814453 53.000999450683594 L -238.0019989013672 53.000999450683594 L -237.9980010986328 53.000999450683594 L -237.9980010986328 38 L -238.0019989013672 38 L -238.0030059814453 38 L -240.9980010986328 38 L -241.00100708007812 38 L -241.0030059814453 38 L -241.10299682617188 38 L -241.10299682617188 53.000999450683594 L -241.0030059814453 53.000999450683594 M -241.00100708007812 25.5 L -240.9980010986328 25.5 L -238.0030059814453 25.5 L -238.0019989013672 25.5 L -237.9980010986328 25.5 L -237.9980010986328 4.5 L -238.0019989013672 4.5 L -238.0030059814453 4.5 L -240.9980010986328 4.5 L -241.00100708007812 4.5 L -241.0030059814453 4.5 L -241.10299682617188 4.5 L -241.10299682617188 25.5 L -241.0030059814453 25.5 L -241.00100708007812 25.5 M -241.00100708007812 -22.000999450683594 L -241.0030059814453 -22.000999450683594 L -241.10299682617188 -22.000999450683594 L -241.10299682617188 -7 L -241.0030059814453 -7 L -241.00100708007812 -7 L -240.9980010986328 -7 L -238.0030059814453 -7 L -238.0019989013672 -7 L -237.9980010986328 -7 L -237.9980010986328 -22.000999450683594 L -238.0019989013672 -22.000999450683594 L -238.0030059814453 -22.000999450683594 L -240.9980010986328 -22.000999450683594 L -241.00100708007812 -22.000999450683594 M -241.00100708007812 -97.00199890136719 L -240.9980010986328 -97.00199890136719 L -238.0030059814453 -97.00199890136719 L -238.0019989013672 -97.00199890136719 L -237.9980010986328 -97.00199890136719 L -237.9980010986328 -112.00199890136719 L -238.0019989013672 -112.00199890136719 L -238.0030059814453 -112.00199890136719 L -240.9980010986328 -112.00199890136719 L -241.00100708007812 -112.00199890136719 L -241.0030059814453 -112.00199890136719 L -241.10299682617188 -112.00199890136719 L -241.10299682617188 -97.00199890136719 L -241.0030059814453 -97.00199890136719 L -241.00100708007812 -97.00199890136719 M -214.00100708007812 -150.9980010986328 L -211.00100708007812 -150.9980010986328 L -211.00100708007812 -151 L -211.00100708007812 -157 L -214.00100708007812 -157 L -214.00100708007812 -151 L -214.00100708007812 -150.9980010986328 M -241.0030059814453 -82.00199890136719 L -241.10299682617188 -82.00199890136719 L -241.10299682617188 -67.0009994506836 L -241.0030059814453 -67.0009994506836 L -241.00100708007812 -67.0009994506836 L -240.9980010986328 -67.0009994506836 L -238.0030059814453 -67.0009994506836 L -238.0019989013672 -67.0009994506836 L -237.9980010986328 -67.0009994506836 L -237.9980010986328 -82.00199890136719 L -238.0019989013672 -82.00199890136719 L -238.0030059814453 -82.00199890136719 L -240.9980010986328 -82.00199890136719 L -241.00100708007812 -82.00199890136719 L -241.0030059814453 -82.00199890136719 M -232.0019989013672 -150.9980010986328 L -229.0019989013672 -150.9980010986328 L -229.0019989013672 -151 L -229.0019989013672 -157 L -232.0019989013672 -157 L -232.0019989013672 -151 L -232.0019989013672 -150.9980010986328 M -217.00100708007812 -150.9980010986328 L -217.00100708007812 -151 L -217.00100708007812 -157 L -220.00100708007812 -157 L -220.00100708007812 -151 L -220.00100708007812 -150.9980010986328 L -217.00100708007812 -150.9980010986328 M -241.0030059814453 -127.00199890136719 L -241.00100708007812 -127.00199890136719 L -240.9980010986328 -127.00199890136719 L -238.0030059814453 -127.00199890136719 L -238.0019989013672 -127.00199890136719 L -237.9980010986328 -127.00199890136719 L -237.9980010986328 -134 L -237.9980010986328 -142.0030059814453 L -238.0019989013672 -142.0030059814453 L -238.0030059814453 -142.0030059814453 L -240.9980010986328 -142.0030059814453 L -241.00100708007812 -142.0030059814453 L -241.0030059814453 -142.0030059814453 L -241.10299682617188 -142.0030059814453 L -241.10299682617188 -134 L -241.10299682617188 -127.00199890136719 L -241.0030059814453 -127.00199890136719 M -241.00100708007812 -37.000999450683594 L -240.9980010986328 -37.000999450683594 L -238.0030059814453 -37.000999450683594 L -238.0019989013672 -37.000999450683594 L -237.9980010986328 -37.000999450683594 L -237.9980010986328 -52.000999450683594 L -238.0019989013672 -52.000999450683594 L -238.0030059814453 -52.000999450683594 L -240.9980010986328 -52.000999450683594 L -241.00100708007812 -52.000999450683594 L -241.0030059814453 -52.000999450683594 L -241.10299682617188 -52.000999450683594 L -241.10299682617188 -37.000999450683594 L -241.0030059814453 -37.000999450683594 L -241.00100708007812 -37.000999450683594 M -235.0019989013672 -150.9980010986328 L -235.0019989013672 -151 L -235.0019989013672 -157 L -238.0030059814453 -157 L -238.0030059814453 -151 L -238.0030059814453 -150.9980010986328 L -238.0019989013672 -150.9980010986328 L -237.9980010986328 -150.9980010986328 L -235.0030059814453 -150.9980010986328 L -235.0019989013672 -150.9980010986328 M -226.0019989013672 -150.9980010986328 L -223.0019989013672 -150.9980010986328 L -223.0019989013672 -151 L -223.0019989013672 -157 L -226.0019989013672 -157 L -226.0019989013672 -151 L -226.0019989013672 -150.9980010986328 M -241.0030059814453 98.0009994506836 L -241.10299682617188 98.0009994506836 L -241.10299682617188 113.00199890136719 L -241.0030059814453 113.00199890136719 L -241.00100708007812 113.00199890136719 L -240.9980010986328 113.00199890136719 L -238.0030059814453 113.00199890136719 L -238.0019989013672 113.00199890136719 L -237.9980010986328 113.00199890136719 L -237.9980010986328 98.0009994506836 L -238.0019989013672 98.0009994506836 L -238.0030059814453 98.0009994506836 L -240.9980010986328 98.0009994506836 L -241.00100708007812 98.0009994506836 L -241.0030059814453 98.0009994506836 M -165.9980010986328 -150.9980010986328 L -162.9980010986328 -150.9980010986328 L -162.9980010986328 -151 L -162.9980010986328 -157 L -165.9980010986328 -157 L -165.9980010986328 -151 L -165.9980010986328 -150.9980010986328 M -150.9969940185547 -150.9980010986328 L -150.9969940185547 -151 L -150.9969940185547 -157 L -153.9980010986328 -157 L -153.9980010986328 -151 L -153.9980010986328 -150.9980010986328 L -150.9969940185547 -150.9980010986328 M -241.00100708007812 68.0009994506836 L -241.0030059814453 68.0009994506836 L -241.10299682617188 68.0009994506836 L -241.10299682617188 83.0009994506836 L -241.0030059814453 83.0009994506836 L -241.00100708007812 83.0009994506836 L -240.9980010986328 83.0009994506836 L -238.0030059814453 83.0009994506836 L -238.0019989013672 83.0009994506836 L -237.9980010986328 83.0009994506836 L -237.9980010986328 68.0009994506836 L -238.0019989013672 68.0009994506836 L -238.0030059814453 68.0009994506836 L -240.9980010986328 68.0009994506836 L -241.00100708007812 68.0009994506836 M -174.99899291992188 -150.9980010986328 L -174.99899291992188 -151 L -174.99899291992188 -157 L -177.99899291992188 -157 L -177.99899291992188 -151 L -177.99899291992188 -150.9980010986328 L -174.99899291992188 -150.9980010986328 M -171.99899291992188 -150.9980010986328 L -168.99899291992188 -150.9980010986328 L -168.99899291992188 -151 L -168.99899291992188 -157 L -171.99899291992188 -157 L -171.99899291992188 -151 L -171.99899291992188 -150.9980010986328 M -241.0030059814453 128.0019989013672 L -241.10299682617188 128.0019989013672 L -241.10299682617188 143.0019989013672 L -241.0030059814453 143.0019989013672 L -241.00100708007812 143.0019989013672 L -240.9980010986328 143.0019989013672 L -238.0030059814453 143.0019989013672 L -238.0019989013672 143.0019989013672 L -237.9980010986328 143.0019989013672 L -237.9980010986328 128.0019989013672 L -238.0019989013672 128.0019989013672 L -238.0030059814453 128.0019989013672 L -240.9980010986328 128.0019989013672 L -241.00100708007812 128.0019989013672 L -241.0030059814453 128.0019989013672 M -196 -150.9980010986328 L -193 -150.9980010986328 L -193 -151 L -193 -157 L -196 -157 L -196 -151 L -196 -150.9980010986328 M -180.99899291992188 -150.9980010986328 L -180.99899291992188 -151 L -180.99899291992188 -157 L -183.99899291992188 -157 L -183.99899291992188 -151 L -183.99899291992188 -150.9980010986328 L -180.99899291992188 -150.9980010986328 M -159.9980010986328 -150.9980010986328 L -156.9980010986328 -150.9980010986328 L -156.9980010986328 -151 L -156.9980010986328 -157 L -159.9980010986328 -157 L -159.9980010986328 -151 L -159.9980010986328 -150.9980010986328 M -241.10299682617188 158.0019989013672 L -241.10299682617188 165 L -241.10299682617188 166 L -241.10299682617188 173.0030059814453 L -241.0030059814453 173.0030059814453 L -241.00100708007812 173.0030059814453 L -240.9980010986328 173.0030059814453 L -238.0030059814453 173.0030059814453 L -238.0019989013672 173.0030059814453 L -237.9980010986328 173.0030059814453 L -237.9980010986328 166 L -237.9980010986328 165 L -237.9980010986328 158.0019989013672 L -238.0019989013672 158.0019989013672 L -238.0030059814453 158.0019989013672 L -240.9980010986328 158.0019989013672 L -241.00100708007812 158.0019989013672 L -241.0030059814453 158.0019989013672 L -241.10299682617188 158.0019989013672 M -199 -150.9980010986328 L -199 -151 L -199 -157 L -202 -157 L -202 -151 L -202 -150.9980010986328 L -199 -150.9980010986328 M -190 -150.9980010986328 L -187 -150.9980010986328 L -187 -151 L -187 -157 L -190 -157 L -190 -151 L -190 -150.9980010986328 M -214.00100708007812 182 L -214.00100708007812 181.9969940185547 L -217.00100708007812 181.9969940185547 L -217.00100708007812 182 L -217.00100708007812 188 L -214.00100708007812 188 L -214.00100708007812 182 M -226.0019989013672 188 L -226.0019989013672 182 L -226.0019989013672 181.9969940185547 L -229.0019989013672 181.9969940185547 L -229.0019989013672 182 L -229.0019989013672 188 L -226.0019989013672 188 M -190 181.9969940185547 L -193 181.9969940185547 L -193 182 L -193 188 L -190 188 L -190 182 L -190 181.9969940185547 M -174.99899291992188 181.9969940185547 L -174.99899291992188 182 L -174.99899291992188 188 L -171.99899291992188 188 L -171.99899291992188 182 L -171.99899291992188 181.9969940185547 L -174.99899291992188 181.9969940185547 M -165.9980010986328 181.9969940185547 L -168.99899291992188 181.9969940185547 L -168.99899291992188 182 L -168.99899291992188 188 L -165.9980010986328 188 L -165.9980010986328 182 L -165.9980010986328 181.9969940185547 M -205.00100708007812 -150.9980010986328 L -205.00100708007812 -151 L -205.00100708007812 -157 L -208.00100708007812 -157 L -208.00100708007812 -151 L -208.00100708007812 -150.9980010986328 L -205.00100708007812 -150.9980010986328 M -196 182 L -196 181.9969940185547 L -199 181.9969940185547 L -199 182 L -199 188 L -196 188 L -196 182 M -162.9980010986328 181.9969940185547 L -162.9980010986328 182 L -162.9980010986328 188 L -159.9980010986328 188 L -159.9980010986328 182 L -159.9980010986328 181.9969940185547 L -162.9980010986328 181.9969940185547 M -156.9980010986328 181.9969940185547 L -156.9980010986328 182 L -156.9980010986328 188 L -153.9980010986328 188 L -153.9980010986328 182 L -153.9980010986328 181.9969940185547 L -156.9980010986328 181.9969940185547 M -177.99899291992188 188 L -177.99899291992188 182 L -177.99899291992188 181.9969940185547 L -180.99899291992188 181.9969940185547 L -180.99899291992188 182 L -180.99899291992188 188 L -177.99899291992188 188 z" fill="none" stroke="rgb(255,0,0)" stroke-width="0.001mm" />
</svg>