<?xml version="1.0" standalone="no"?>
<!DOCTYPE svg PUBLIC "-//W3C//DTD SVG 1.1//EN"
  "http://www.w3.org/Graphics/SVG/1.1/DTD/svg11.dtd">
<svg width="297mm" height="103.99700927734375mm" viewBox="-120 206 297 103.99700927734375" xmlns="http://www.w3.org/2000/svg" version="1.1">
	<title>svgOutput</title>
	<desc>made with tinkercad</desc>
<path d="M 176 274.99798583984375 L 172.9980010986328 274.99798583984375 L 172.9969940185547 274.99798583984375 L 172.54800415039062 274.99798583984375 L 172.54800415039062 277.99798583984375 L 172.9969940185547 277.99798583984375 L 172.9980010986328 277.99798583984375 L 176 277.99798583984375 L 176 280.9989929199219 L 172.9980010986328 280.9989929199219 L 172.9969940185547 280.9989929199219 L 172.54800415039062 280.9989929199219 L 172.54800415039062 283.9989929199219 L 172.9969940185547 283.9989929199219 L 172.9980010986328 283.9989929199219 L 176 283.9989929199219 L 176 286.9989929199219 L 172.9980010986328 286.9989929199219 L 172.9969940185547 286.9989929199219 L 172.54800415039062 286.9989929199219 L 172.54800415039062 289.9989929199219 L 172.9969940185547 289.9989929199219 L 172.9980010986328 289.9989929199219 L 176 289.9989929199219 L 176 292.9989929199219 L 172.9980010986328 292.9989929199219 L 172.9969940185547 292.9989929199219 L 172.54800415039062 292.9989929199219 L 172.54800415039062 295.9949951171875 L 172.54800415039062 296 L 172.9969940185547 296 L 172.9980010986328 296 L 176 296 L 176 298.99798583984375 L 173 298.99798583984375 L 172.9980010986328 298.99798583984375 L 172.9980010986328 299.1000061035156 L 172.9980010986328 304.99700927734375 L 173 304.99700927734375 L 173 307 L 173 308.99700927734375 L 153 308.99700927734375 L 153 307 L 153 305.99700927734375 L -96 305.99700927734375 L -96 307 L -96 308.99700927734375 L -116 308.99700927734375 L -116 307 L -116 304.99700927734375 L -115.99800109863281 304.99700927734375 L -115.99800109863281 299.1000061035156 L -115.99800109863281 298.99798583984375 L -116 298.99798583984375 L -119 298.99798583984375 L -119 296 L -115.99800109863281 296 L -115.99700164794922 296 L -112.99800109863281 296 L -112.99800109863281 295.9949951171875 L -112.99800109863281 292.9989929199219 L -115.99700164794922 292.9989929199219 L -115.99800109863281 292.9989929199219 L -119 292.9989929199219 L -119 289.9989929199219 L -115.99800109863281 289.9989929199219 L -115.99700164794922 289.9989929199219 L -112.99800109863281 289.9989929199219 L -112.99800109863281 286.9989929199219 L -115.99700164794922 286.9989929199219 L -115.99800109863281 286.9989929199219 L -119 286.9989929199219 L -119 283.9989929199219 L -115.99800109863281 283.9989929199219 L -115.99700164794922 283.9989929199219 L -112.99800109863281 283.9989929199219 L -112.99800109863281 280.9989929199219 L -115.99700164794922 280.9989929199219 L -115.99800109863281 280.9989929199219 L -119 280.9989929199219 L -119 277.99798583984375 L -115.99800109863281 277.99798583984375 L -115.99700164794922 277.99798583984375 L -112.99800109863281 277.99798583984375 L -112.99800109863281 274.99798583984375 L -115.99700164794922 274.99798583984375 L -115.99800109863281 274.99798583984375 L -119 274.99798583984375 L -119 271.99798583984375 L -115.99800109863281 271.99798583984375 L -115.99700164794922 271.99798583984375 L -112.99800109863281 271.99798583984375 L -112.99800109863281 268.99798583984375 L -115.99700164794922 268.99798583984375 L -115.99800109863281 268.99798583984375 L -119 268.99798583984375 L -119 265.99798583984375 L -115.99800109863281 265.99798583984375 L -115.99700164794922 265.99798583984375 L -112.99800109863281 265.99798583984375 L -112.99800109863281 262.99798583984375 L -115.99700164794922 262.99798583984375 L -115.99800109863281 262.99798583984375 L -119 262.99798583984375 L -119 259.99700927734375 L -115.99800109863281 259.99700927734375 L -115.99700164794922 259.99700927734375 L -112.99800109863281 259.99700927734375 L -112.99800109863281 256.99700927734375 L -115.99700164794922 256.99700927734375 L -115.99800109863281 256.99700927734375 L -119 256.99700927734375 L -119 253.9969940185547 L -115.99800109863281 253.9969940185547 L -115.99700164794922 253.9969940185547 L -112.99800109863281 253.9969940185547 L -112.99800109863281 250.9969940185547 L -115.99700164794922 250.9969940185547 L -115.99800109863281 250.9969940185547 L -119 250.9969940185547 L -119 247.9969940185547 L -115.99800109863281 247.9969940185547 L -115.99700164794922 247.9969940185547 L -112.99800109863281 247.9969940185547 L -112.99800109863281 244.9969940185547 L -115.99700164794922 244.9969940185547 L -115.99800109863281 244.9969940185547 L -119 244.9969940185547 L -119 241.99600219726562 L -115.99800109863281 241.99600219726562 L -115.99700164794922 241.99600219726562 L -112.99800109863281 241.99600219726562 L -112.99800109863281 238.99600219726562 L -115.99700164794922 238.99600219726562 L -115.99800109863281 238.99600219726562 L -119 238.99600219726562 L -119 235.99600219726562 L -115.99800109863281 235.99600219726562 L -115.99700164794922 235.99600219726562 L -112.99800109863281 235.99600219726562 L -112.99800109863281 232.99600219726562 L -115.99700164794922 232.99600219726562 L -115.99800109863281 232.99600219726562 L -119 232.99600219726562 L -119 229.99600219726562 L -115.99800109863281 229.99600219726562 L -115.99700164794922 229.99600219726562 L -112.99800109863281 229.99600219726562 L -112.99800109863281 226.99600219726562 L -115.99700164794922 226.99600219726562 L -115.99800109863281 226.99600219726562 L -119 226.99600219726562 L -119 223.9949951171875 L -115.99800109863281 223.9949951171875 L -115.99700164794922 223.9949951171875 L -112.99800109863281 223.9949951171875 L -112.99800109863281 220.9949951171875 L -115.99700164794922 220.9949951171875 L -115.99800109863281 220.9949951171875 L -119 220.9949951171875 L -119 217.9949951171875 L -115.99800109863281 217.9949951171875 L -115.99700164794922 217.9949951171875 L -112.99800109863281 217.9949951171875 L -112.99800109863281 214.9949951171875 L -115.99700164794922 214.9949951171875 L -115.99800109863281 214.9949951171875 L -119 214.9949951171875 L -119 211.9949951171875 L -115.99800109863281 211.9949951171875 L -115.99700164794922 211.9949951171875 L -112.99800109863281 211.9949951171875 L -112.99800109863281 208.9949951171875 L -115.99700164794922 208.9949951171875 L -115.99800109863281 208.9949951171875 L -119 208.9949951171875 L -119 207 L -115.99800109863281 207 L -96.00199890136719 207 L 13.498000144958496 207 L 43.50299835205078 207 L 53.99800109863281 207 L 53.99800109863281 210 L 69.00299835205078 210 L 69.00299835205078 207 L 153.0030059814453 207 L 172.9980010986328 207 L 176 207 L 176 208.9949951171875 L 172.9980010986328 208.9949951171875 L 172.9969940185547 208.9949951171875 L 172.54800415039062 208.9949951171875 L 172.54800415039062 211.9949951171875 L 172.9969940185547 211.9949951171875 L 172.9980010986328 211.9949951171875 L 176 211.9949951171875 L 176 214.9949951171875 L 172.9980010986328 214.9949951171875 L 172.9969940185547 214.9949951171875 L 172.54800415039062 214.9949951171875 L 172.54800415039062 217.9949951171875 L 172.9969940185547 217.9949951171875 L 172.9980010986328 217.9949951171875 L 176 217.9949951171875 L 176 220.9949951171875 L 172.9980010986328 220.9949951171875 L 172.9969940185547 220.9949951171875 L 172.54800415039062 220.9949951171875 L 172.54800415039062 223.9949951171875 L 172.9969940185547 223.9949951171875 L 172.9980010986328 223.9949951171875 L 176 223.9949951171875 L 176 226.99600219726562 L 172.9980010986328 226.99600219726562 L 172.9969940185547 226.99600219726562 L 172.54800415039062 226.99600219726562 L 172.54800415039062 229.99600219726562 L 172.9969940185547 229.99600219726562 L 172.9980010986328 229.99600219726562 L 176 229.99600219726562 L 176 232.99600219726562 L 172.9980010986328 232.99600219726562 L 172.9969940185547 232.99600219726562 L 172.54800415039062 232.99600219726562 L 172.54800415039062 235.99600219726562 L 172.9969940185547 235.99600219726562 L 172.9980010986328 235.99600219726562 L 176 235.99600219726562 L 176 238.99600219726562 L 172.9980010986328 238.99600219726562 L 172.9969940185547 238.99600219726562 L 172.54800415039062 238.99600219726562 L 172.54800415039062 241.99600219726562 L 172.9969940185547 241.99600219726562 L 172.9980010986328 241.99600219726562 L 176 241.99600219726562 L 176 244.9969940185547 L 172.9980010986328 244.9969940185547 L 172.9969940185547 244.9969940185547 L 172.54800415039062 244.9969940185547 L 172.54800415039062 247.9969940185547 L 172.9969940185547 247.9969940185547 L 172.9980010986328 247.9969940185547 L 176 247.9969940185547 L 176 250.9969940185547 L 172.9980010986328 250.9969940185547 L 172.9969940185547 250.9969940185547 L 172.54800415039062 250.9969940185547 L 172.54800415039062 253.9969940185547 L 172.9969940185547 253.9969940185547 L 172.9980010986328 253.9969940185547 L 176 253.9969940185547 L 176 256.99700927734375 L 172.9980010986328 256.99700927734375 L 172.9969940185547 256.99700927734375 L 172.54800415039062 256.99700927734375 L 172.54800415039062 259.99700927734375 L 172.9969940185547 259.99700927734375 L 172.9980010986328 259.99700927734375 L 176 259.99700927734375 L 176 262.99798583984375 L 172.9980010986328 262.99798583984375 L 172.9969940185547 262.99798583984375 L 172.54800415039062 262.99798583984375 L 172.54800415039062 265.99798583984375 L 172.9969940185547 265.99798583984375 L 172.9980010986328 265.99798583984375 L 176 265.99798583984375 L 176 268.99798583984375 L 172.9980010986328 268.99798583984375 L 172.9969940185547 268.99798583984375 L 172.54800415039062 268.99798583984375 L 172.54800415039062 271.99798583984375 L 172.9969940185547 271.99798583984375 L 172.9980010986328 271.99798583984375 L 176 271.99798583984375 L 176 274.99798583984375 M 18 296 L 18 299.1000061035156 L 39 299.1000061035156 L 39 296 L 43.50299835205078 296 L 43.50299835205078 295.9949951171875 L 43.50299835205078 292.9949951171875 L 13.498000144958496 292.9949951171875 L 13.498000144958496 295.9949951171875 L 13.498000144958496 296 L 18 296 M -109.00199890136719 296 L -109.00199890136719 299.1000061035156 L -96.00199890136719 299.1000061035156 L -94.00199890136719 299.1000061035156 L -94.00199890136719 295.9949951171875 L -96.00199890136719 295.9949951171875 L -109.00199890136719 295.9949951171875 L -109.00199890136719 296 M 161.0019989013672 295.9949951171875 L 153.0030059814453 295.9949951171875 L 146.0019989013672 295.9949951171875 L 146.0019989013672 299.1000061035156 L 153.0030059814453 299.1000061035156 L 161.0019989013672 299.1000061035156 L 161.0019989013672 296 L 161.0019989013672 295.9949951171875 M -7.500999927520752 299.1000061035156 L -7.500999927520752 295.9949951171875 L -19.000999450683594 295.9949951171875 L -19.000999450683594 299.1000061035156 L -7.500999927520752 299.1000061035156 M 56.000999450683594 295.9949951171875 L 56.000999450683594 299.1000061035156 L 71.0009994506836 299.1000061035156 L 71.0009994506836 295.9949951171875 L 56.000999450683594 295.9949951171875 M -79.00199890136719 295.9949951171875 L -79.00199890136719 299.1000061035156 L -64.00199890136719 299.1000061035156 L -64.00199890136719 295.9949951171875 L -79.00199890136719 295.9949951171875 M -34.000999450683594 299.1000061035156 L -34.000999450683594 295.9949951171875 L -49.000999450683594 295.9949951171875 L -49.000999450683594 299.1000061035156 L -34.000999450683594 299.1000061035156 M 116.00199890136719 295.9949951171875 L 116.00199890136719 299.1000061035156 L 131.0019989013672 299.1000061035156 L 131.0019989013672 295.9949951171875 L 116.00199890136719 295.9949951171875 M 86.0009994506836 295.9949951171875 L 86.0009994506836 299.1000061035156 L 101.0009994506836 299.1000061035156 L 101.0009994506836 295.9949951171875 L 86.0009994506836 295.9949951171875 z" fill="none" stroke="rgb(255,0,0)" stroke-width="0.001mm" />
</svg>